<?xml version="1.0" encoding="UTF-8"?>
<svg width="978px" height="1023px" viewBox="0 0 978 1023" version="1.1" xmlns="http://www.w3.org/2000/svg" xmlns:xlink="http://www.w3.org/1999/xlink">
    <!-- Generator: Sketch 64 (93537) - https://sketch.com -->
    <title>app-user-colour</title>
    <desc>Created with Sketch.</desc>
    <g id="Page-1" stroke="none" stroke-width="1" fill="none" fill-rule="evenodd">
        <g id="app-user-colour" fill-rule="nonzero">
            <path d="M819.4,508 L819.4,935.7 C819.4,967 794.1,992.3 762.8,992.3 L762.8,992.3 L430.4,992.3 C399.1,992.3 373.8,967 373.8,935.7 L373.8,935.7 L373.8,87.1 C373.8,55.8 399.1,30.5 430.4,30.5 L762.8,30.5 C794.1,30.5 819.4,55.8 819.4,87.1 L819.4,87.1 L819.4,508" id="Path" fill="#FFFFFF"></path>
            <path d="M737.6,1010.2 L664.1,908.4 C664.1,908.4 622.7,851.2 596.7,850.2 C596.5,865.2 597.5,972.8 602.1,1010.1 L737.6,1010.1 L737.6,1010.2 Z" id="Path" fill="#56CAD8"></path>
            <path d="M501.2,8.1 L692,8.1 C700.7,8.1 707.7,15.1 707.7,23.8 L707.7,47.9 C707.7,56.6 700.7,63.6 692,63.6 L501.2,63.6 C492.5,63.6 485.5,56.6 485.5,47.9 L485.5,23.8 C485.5,15.2 492.5,8.1 501.2,8.1 Z" id="Path" fill="#F3F3F3"></path>
            <path d="M805.8,993.9 L819.4,993.9 L819.4,828.3 L704.8,809.3 L596.6,850.3 C601.7,861.9 628.6,938.9 686.3,1006.3 L805.7,1006.3 L805.7,993.9 L805.8,993.9 Z" id="Path" fill="#74D5DE"></path>
            <path d="M564.7,587.7 C555.4,587.5 555.4,601.8 555.4,601.8 C550.9,588.4 452.7,344.1 452.7,344.1 C452.7,344.1 432.4,352.7 455.8,398.9 C448.2,403.4 427.1,420.3 435.8,447.5 C442.4,467.9 456.8,475.1 465.8,475.1 C464.3,490.4 497,646.7 501.3,654.2 C511.3,671.9 530.6,691.2 542,691.7 C560.2,692.6 605,668.7 616.1,656.2 C627.2,643.7 582.2,588 564.7,587.7 Z" id="Path" fill="#DE8E68"></path>
            <path d="M699.9,501.5 C655.6,462 547.5,556.6 549.6,573 C551.7,589.4 609.9,648.7 627,643.7 C644.1,638.7 734.8,532.5 699.9,501.5 Z" id="Path" fill="#FCC486"></path>
            <path d="M819.4,508 C799.7,476.1 770.8,455.5 729.4,455.5 C585.7,455.5 581.6,829.5 596.6,850.3 C609.9,868.7 768.4,873.5 819.4,860.8" id="Path" fill="#FED385"></path>
            <path d="M819.4,644.5 L804.3,650.7 C805.6,655.5 811.4,682.4 819.4,712.1" id="Path" fill="#DE8E68"></path>
            <path d="M819.4,504.7 C809.4,497.3 799.2,494.3 789.8,498.2 C735.6,520.8 774.2,656.7 789.8,661.7 C794.8,663.3 806.2,661.7 819.4,658.2" id="Path" fill="#FED892"></path>
            <path d="M757,488.3 C757,500.2 691.1,502.8 691.1,488.3 L691.1,407.3 L757,407.3 L757,488.3 Z" id="Path" fill="#DE8E68"></path>
            <ellipse id="Oval" fill="#DE8E68" transform="translate(715.278470, 372.780200) rotate(-68.303917) translate(-715.278470, -372.780200) " cx="715.27847" cy="372.7802" rx="80.3036427" ry="59.7027082"></ellipse>
            <ellipse id="Oval" fill="#DE8E68" transform="translate(766.783640, 400.919670) rotate(-54.388392) translate(-766.783640, -400.919670) " cx="766.78364" cy="400.91967" rx="18.9003996" ry="13.2002791"></ellipse>
            <path d="M822.2,362.9 C822.2,351.9 811.9,339.8 810,326 C809,319 811.2,289.9 803,280 C786,259.6 776,263.8 763,259 C740.4,250.7 731.7,237 713,237 C691.8,237 683.2,248 668,248 C650.6,248 636.4,240 612,240 C599,240 582,257 582,272 C582,307.5 615,302.4 615,311 C615,317 613,321.8 613,330 C613,340.8 627,347 635,347 C659.4,347 662.6,344 662.6,344 C667.4,334.3 673.6,325.4 681,317.5 C682,316.5 697.8,327.6 723.6,328.5 C744.8,329.2 759.7,333.3 759.7,343.2 C759.7,350.2 757.1,370.9 757.3,376.7 C757.5,382.5 759.5,386.3 760.8,386.3 C762.1,386.3 762.8,384.4 771,384.4 C779.7,384.4 780.4,395.1 781.9,395.1 C790.7,395.1 822.2,388 822.2,362.9 Z" id="Path" fill="#FD8369"></path>
            <path d="M427.5,230.8 L477.4,230.8 C492.2,230.8 504.2,242.8 504.2,257.6 L504.2,307.5 C504.2,322.3 492.2,334.3 477.4,334.3 L427.5,334.3 C412.7,334.3 400.7,322.3 400.7,307.5 L400.7,257.6 C400.7,242.8 412.7,230.8 427.5,230.8 Z" id="Path" fill="#FED385"></path>
            <circle id="Oval" fill="#FD8369" cx="491.8" cy="239.1" r="21.2"></circle>
            <path d="M764.6,0 L428.7,0 C383.5,0 346.8,36.7 346.8,81.9 L346.8,940.7 C346.8,985.9 383.5,1022.6 428.7,1022.6 L428.7,1022.6 L764.6,1022.6 C809.8,1022.6 846.5,985.9 846.5,940.7 L846.5,81.9 C846.5,36.7 809.8,0 764.6,0 Z M819.4,508 L819.4,935.7 C819.4,967 794.1,992.3 762.8,992.3 L762.8,992.3 L430.4,992.3 C399.1,992.3 373.8,967 373.8,935.7 L373.8,935.7 L373.8,87.1 C373.8,55.8 399.1,30.5 430.4,30.5 L762.8,30.5 C794.1,30.5 819.4,55.8 819.4,87.1 L819.4,87.1 L819.4,508 Z" id="Shape" fill="#F3F3F3"></path>
            <path d="M816.6,127.1 L937.9,127.1 C959.8,127.1 977.6,144.9 977.6,166.8 L977.6,166.8 C977.6,188.7 959.8,206.5 937.9,206.5 L816.6,206.5 C794.7,206.5 776.9,188.7 776.9,166.8 L776.9,166.8 C776.9,144.8 794.7,127.1 816.6,127.1 Z" id="Path" fill="#74D5DE"></path>
            <polygon id="Path" fill="#74D5DE" points="824.1 188 789.7 153.5 789.7 222.5"></polygon>
            <circle id="Oval" fill="#FED385" cx="836.3" cy="168.1" r="10"></circle>
            <circle id="Oval" fill="#FED385" cx="877.3" cy="168.1" r="10"></circle>
            <circle id="Oval" fill="#FED385" cx="918.2" cy="168.1" r="10"></circle>
            <path d="M224.872743,446 L43.5236788,446 C37.8954982,446 32.8164084,444.448525 31.0318633,442.061639 L0.631876416,402.518689 C-1.56448674,399.535082 2.14187609,396.312787 9.00551096,395.298361 C10.3782379,395.119344 11.7509649,395 13.1236919,395 L255.821821,395 C263.097274,395 269,397.565902 269,400.728525 C269,401.325246 268.725455,401.921967 268.313637,402.518689 L237.364559,442.061639 C235.442741,444.448525 230.500924,446 224.872743,446 Z" id="Path" fill="#FD8369"></path>
        </g>
        <g id="Group-2" transform="translate(24.000000, 259.000000)" fill="#74D5DE">
            <rect id="Rectangle" x="19" y="0" width="19" height="24" rx="3"></rect>
            <rect id="Rectangle" x="0" y="18" width="57" height="119" rx="10"></rect>
        </g>
        <g id="Group" transform="translate(116.000000, 298.000000)" fill="#FED385">
            <rect id="Rectangle" x="11" y="0" width="37" height="24" rx="3"></rect>
            <rect id="Rectangle" x="0" y="19" width="59" height="79" rx="5"></rect>
        </g>
        <g id="Group-3" transform="translate(210.000000, 316.000000)" fill="#DE8E68">
            <rect id="Rectangle" x="0" y="20" width="41" height="60" rx="4"></rect>
            <rect id="Rectangle" x="17" y="6" width="7" height="13"></rect>
            <ellipse id="Oval" cx="20.5" cy="5" rx="3.5" ry="5"></ellipse>
            <rect id="Rectangle" x="7" y="10" width="27" height="11" rx="2"></rect>
        </g>
    </g>
</svg>
