<?xml version="1.0" encoding="UTF-8"?>
<svg width="950px" height="705px" viewBox="0 0 950 705" version="1.1" xmlns="http://www.w3.org/2000/svg" xmlns:xlink="http://www.w3.org/1999/xlink">
    <!-- Generator: Sketch 64 (93537) - https://sketch.com -->
    <title>undraw_deliveries_131a</title>
    <desc>Created with Sketch.</desc>
    <g id="Page-1" stroke="none" stroke-width="1" fill="none" fill-rule="evenodd">
        <g id="Artboard" transform="translate(-105.000000, -199.000000)">
            <g id="undraw_deliveries_131a" transform="translate(105.000000, 199.000000)">
                <path d="M683.32,418.43 L690.79,413.82 C691.5,413.37 692.2,412.89 692.92,412.44 C659.913582,406.763756 635.297318,378.894718 633.74,345.44 C633.191031,334.271737 635.302293,323.13277 639.9,312.94 C648.566234,293.634353 665.342284,279.161759 685.71,273.42 L685.34,302.82 L701.49,270.82 C701.556255,270.809519 701.623745,270.809519 701.69,270.82 C720.590827,269.937477 739.068049,276.599772 753.056539,289.341132 C767.045029,302.082492 775.398815,319.859111 776.28,338.76 C776.34,340.12 776.28,341.46 776.28,342.76 C781.9,336.35 787,329.48 790.38,321.95 C797.22,306.7 797.38,289.43 796.81,268.44 C795.73,226.84 793.94,184.93 791.6,143.14 C756.765691,139.271342 729.908691,110.659204 728.25,75.65 C728.15,73.46 728.18,71.31 728.25,69.17 C728.25,68.64 728.25,68.1 728.33,67.57 C728.47,65.5 728.66,63.45 728.98,61.43 C728.98,61.09 729.1,60.77 729.16,60.43 C729.453333,58.7166667 729.803333,57.0233333 730.21,55.35 C730.37,54.73 730.52,54.1 730.69,53.48 C731.19,51.66 731.69,49.87 732.38,48.1 C732.59,47.51 732.84,46.94 733.06,46.36 C733.57,45.06 734.12,43.78 734.7,42.51 C735.01,41.84 735.31,41.18 735.64,40.51 C735.72,40.34 735.79,40.17 735.88,40 L735.88,40 C751.416187,9.31308591 786.647871,-5.90518441 819.64,3.82 L819.16,42.08 L835.16,10.48 C862.097444,25.8989471 875.874268,57.0467261 869.16,87.35 L869.24,87.35 C869.13,87.86 868.97,88.35 868.85,88.85 C868.63,89.79 868.39,90.72 868.13,91.65 C867.79,92.84 867.41,94.01 867.02,95.18 C866.72,96.05 866.43,96.94 866.1,97.8 C865.62,99.06 865.1,100.29 864.52,101.52 C864.2,102.24 863.91,102.97 863.52,103.68 C862.606667,105.52 861.606667,107.32 860.52,109.08 C860.15,109.69 859.73,110.27 859.34,110.88 C858.58,112.06 857.81,113.23 856.98,114.37 C856.47,115.07 855.92,115.74 855.38,116.43 C854.6,117.43 853.8,118.43 852.97,119.34 C852.38,120.01 851.78,120.67 851.16,121.34 C850.29,122.26 849.39,123.15 848.46,124.03 C847.85,124.62 847.23,125.21 846.59,125.77 C845.54,126.7 844.44,127.59 843.33,128.46 C842.77,128.9 842.23,129.36 841.65,129.78 C839.963333,131.033333 838.22,132.21 836.42,133.31 C836.08,133.51 835.72,133.68 835.42,133.88 C833.92,134.77 832.42,135.6 830.81,136.38 C830.14,136.71 829.44,137 828.75,137.31 C827.46,137.89 826.16,138.45 824.83,138.96 C824.06,139.25 823.27,139.52 822.48,139.79 C821.17,140.24 819.84,140.65 818.48,141.02 C817.68,141.24 816.89,141.46 816.08,141.65 C814.62,142 813.13,142.29 811.63,142.54 C811.53,142.54 811.44,142.54 811.34,142.6 C812.326667,160.226667 813.203333,177.863333 813.97,195.51 C822.566572,177.862338 838.058713,164.539614 856.794582,158.68229 C875.530451,152.824965 895.852365,154.951275 912.97,164.56 L900.36,199.11 L926.3,174.2 C940.185803,186.927529 948.457144,204.642585 949.3,223.46 C949.629988,230.062659 949.02057,236.678721 947.49,243.11 C940.822006,271.5885 917.439848,293.107558 888.506839,297.393358 C859.57383,301.679157 830.957457,287.862558 816.32,262.54 C816.32,264.33 816.45,266.13 816.5,267.92 C816.97,286.44 817.56,309.48 808.33,330.06 C802.08,344.01 792.01,355.34 782.06,365.49 C775.59,372.1 768.88,378.49 762,384.68 C755.235352,393.763562 746.405217,401.106011 736.24,406.1 C724.94,414.806667 713.24,422.96 701.14,430.56 L693.79,435.3 C687,439.51 680.04,443.83 673.21,448.3 C674.41,448.18 675.6,448.05 676.82,448 C707.841312,446.546525 736.241849,465.319829 747.06,494.43 L702.48,530.72 L751.48,519.35 C751.452788,543.871591 738.838635,566.662134 718.074063,579.705972 C697.309491,592.74981 671.302498,594.220203 649.2,583.6 C650.3,584.98 651.41,586.35 652.51,587.72 C654.7,590.45 656.88,593.16 659.01,595.85 C688.01,632.58 696.09,667.46 681.72,694.05 L664.26,684.61 C678.26,658.73 657.26,625.61 643.43,608.15 C641.34,605.51 639.2,602.85 637.04,600.15 C618.51,577.15 597.51,551.03 598.04,519.02 C598.79,470.82 645.68,441.75 683.32,418.43 Z" id="Path" fill="#F2F2F2" fill-rule="nonzero"></path>
                <ellipse id="Oval" fill="#3F3D56" fill-rule="nonzero" cx="455.5" cy="683.65" rx="455.5" ry="21"></ellipse>
                <path d="M823.49,675.82 C826.49,670.31 823.09,663.56 819.21,658.64 C815.33,653.72 810.6,648.64 810.7,642.35 C810.84,633.35 820.39,628.04 828.03,623.27 C833.687676,619.726607 838.907147,615.527534 843.58,610.76 C845.541271,608.925546 847.162879,606.758888 848.37,604.36 C849.94,600.84 849.9,596.84 849.8,592.98 C849.466667,580.14 848.833333,567.313333 847.9,554.5" id="Path" stroke="#3F3D56" stroke-width="4"></path>
                <path d="M862.41,553.82 C862.182878,549.046086 859.546233,544.714455 855.41,542.32 L852.27,548.54 L852.36,541.02 C848.001774,539.714271 843.280845,540.607748 839.701187,543.415791 C836.121529,546.223834 834.129607,550.596215 834.36,555.14 C834.595795,560.141718 837.482064,564.637701 841.931577,566.934356 C846.381089,569.23101 851.717859,568.979419 855.931577,566.274356 C860.145294,563.569292 862.595795,558.821718 862.36,553.82 L862.41,553.82 Z" id="Path" fill="#74D5DE" fill-rule="nonzero"></path>
                <path d="M837.38,648.82 C834.351229,654.703436 827.616753,657.662787 821.23451,655.91486 C814.852267,654.166933 810.565437,648.189139 810.9571,641.58347 C811.348764,634.9778 816.311946,629.548458 822.856022,628.566959 C829.400099,627.58546 835.737688,631.31988 838.05,637.52 L829.29,644.65 L838.930002,642.41 C838.931126,644.639608 838.399717,646.837241 837.38,648.82 L837.38,648.82 Z" id="Path" fill="#74D5DE" fill-rule="nonzero"></path>
                <path d="M830.45,621.53 C826.730929,621.709111 823.093709,620.399354 820.342625,617.890349 C817.59154,615.381345 815.953242,611.879801 815.79,608.16 C815.678502,605.96402 816.093354,603.773186 817,601.77 C818.701015,597.972705 821.996593,595.12386 826,593.99 L825.93,599.78 L829.11,593.48 L829.11,593.48 C836.855793,593.118254 843.428253,599.104207 843.789999,606.85 C844.151746,614.595793 838.165793,621.168253 830.42,621.53 L830.45,621.53 Z" id="Path" fill="#74D5DE" fill-rule="nonzero"></path>
                <path d="M864.52,598.82 C856.788014,599.184508 850.224508,593.211986 849.86,585.48 C849.495492,577.748014 855.468014,571.184508 863.2,570.82 C865.824526,570.6906 868.431973,571.307788 870.72,572.6 L868.24,579.4 L873.34,574.5 C876.076746,577.001399 877.709487,580.486258 877.88,584.19 C877.94371,585.487229 877.822495,586.786924 877.52,588.05 C876.081951,594.142727 870.773883,598.540257 864.52,598.82 L864.52,598.82 Z" id="Path" fill="#74D5DE" fill-rule="nonzero"></path>
                <path d="M860.52,557.52 C857.28,557.88 854.13,558.89 850.88,559.09 C847.63,559.29 844.06,558.51 842,555.98 C840.89,554.62 840.34,552.9 839.4,551.42 C838.514598,550.036999 837.302235,548.893325 835.87,548.09 C833.559785,552.919131 834.205643,558.642905 837.533885,562.835804 C840.862128,567.028703 846.290015,568.956596 851.517413,567.802514 C856.744811,566.648433 860.856461,562.614444 862.11,557.41 C861.57,557.43 861.04,557.47 860.52,557.52 Z" id="Path" fill="#000000" fill-rule="nonzero" opacity="0.1"></path>
                <path d="M864.52,598.82 C859.595996,599.06984 854.903564,596.711217 852.16634,592.610506 C849.429115,588.509795 849.050664,583.271589 851.17,578.82 C852.28406,579.572221 853.241727,580.533284 853.99,581.65 C854.99,583.16 855.59,584.9 856.77,586.29 C858.95,588.86 862.69,589.7 866.08,589.54 C869.47,589.38 872.73,588.43 876.08,588.12 C876.54,588.12 877.02,588.04 877.49,588.03 C876.062708,594.120337 870.768377,598.524795 864.52,598.82 L864.52,598.82 Z" id="Path" fill="#000000" fill-rule="nonzero" opacity="0.1"></path>
                <path d="M830.45,621.53 C826.730929,621.709111 823.093709,620.399354 820.342625,617.890349 C817.59154,615.381345 815.953242,611.879801 815.79,608.16 C815.678502,605.96402 816.093354,603.773186 817,601.77 C818.16382,602.531143 819.180213,603.496717 820,604.62 C821.09,606.16 821.77,607.93 823,609.35 C825.37,611.99 829.35,612.92 832.94,612.83 C836.53,612.74 839.76,611.9 843.22,611.64 C841.470461,617.296705 836.36451,621.251119 830.45,621.53 Z" id="Path" fill="#000000" fill-rule="nonzero" opacity="0.1"></path>
                <path d="M837.38,648.82 C834.204362,655.886483 825.901483,659.040637 818.835,655.864999 C811.768517,652.689362 808.614363,644.386483 811.79,637.32 C812.942091,638.085698 813.979184,639.011674 814.87,640.07 C816.2,641.7 817.08,643.54 818.63,645.07 C821.5,647.88 826.13,649.07 830.25,649.15 C832.631104,649.181234 835.011961,649.07104 837.38,648.82 L837.38,648.82 Z" id="Path" fill="#000000" fill-rule="nonzero" opacity="0.1"></path>
                <path d="M802.33,669.47 C802.33,669.47 813.4,669.13 816.74,666.75 C820.08,664.37 833.74,661.53 834.61,665.35 C835.48,669.17 851.26,684.35 838.75,684.41 C826.24,684.47 809.69,682.41 806.36,680.41 C803.03,678.41 802.33,669.47 802.33,669.47 Z" id="Path" fill="#656380" fill-rule="nonzero"></path>
                <path d="M838.97,683.08 C826.47,683.18 809.91,681.08 806.58,679.08 C804.05,677.54 803.03,671.99 802.7,669.43 L802.33,669.43 C802.33,669.43 803.03,678.36 806.33,680.43 C809.63,682.5 826.21,684.51 838.72,684.43 C842.33,684.43 843.58,683.11 843.51,681.21 C843.04,682.34 841.66,683.06 838.97,683.08 Z" id="Path" fill="#000000" fill-rule="nonzero" opacity="0.2"></path>
                <path d="M194.41,644.97 C187.15,631.53 195.41,615.07 204.85,603.09 C214.29,591.11 225.85,578.65 225.6,563.38 C225.24,541.44 201.96,528.49 183.36,516.86 C169.557948,508.22882 156.826043,497.994289 145.43,486.37 C140.86,481.7 136.43,476.72 133.77,470.76 C129.93,462.18 130.03,452.43 130.28,443.03 C131.08,411.696667 132.626667,380.423333 134.92,349.21" id="Path" stroke="#3F3D56" stroke-width="4"></path>
                <path d="M99.55,347.5 C100.106519,335.867938 106.54205,325.317888 116.63,319.5 L124.29,334.65 L124.06,316.31 C138.338884,312.102469 153.699856,317.608456 162.054507,329.928751 C170.409157,342.249046 169.840735,358.557088 160.648547,370.265783 C151.456359,381.974478 135.749306,386.397579 121.798028,381.206077 C107.84675,376.014575 98.8519932,362.39952 99.55,347.53 L99.55,347.5 Z" id="Path" fill="#74D5DE" fill-rule="nonzero"></path>
                <path d="M160.57,579.06 C167.643375,592.845059 183.100486,600.152757 198.242752,596.870643 C213.385018,593.588529 224.429151,580.536639 225.16,565.06 C225.398869,560.328111 224.639065,555.598929 222.93,551.18 C217.814605,537.909529 205.024277,529.186439 190.802256,529.268084 C176.580234,529.350881 163.891618,538.221272 158.93,551.55 L180.3,568.93 L156.789946,563.46 C156.78026,568.887947 158.076751,574.238547 160.57,579.06 Z" id="Path" fill="#74D5DE" fill-rule="nonzero"></path>
                <path d="M177.46,512.64 C194.827481,513.434129 210.030167,501.079352 212.804552,483.916519 C215.578938,466.753686 205.043142,450.238263 188.31,445.52 L188.49,459.61 L180.79,444.28 L180.7,444.28 C161.820146,443.399106 145.800894,457.990146 144.92,476.87 C144.039106,495.749854 158.630146,511.769106 177.51,512.65 L177.46,512.64 Z" id="Path" fill="#74D5DE" fill-rule="nonzero"></path>
                <path d="M94.4,457.37 C108.926791,458.077746 122.313865,449.525798 127.778186,436.047306 C133.242507,422.568814 129.590099,407.108883 118.671583,397.500836 C107.753067,387.892789 91.954184,386.236024 79.28,393.37 L85.28,409.94 L72.89,397.97 C66.2006775,404.057274 62.2071637,412.555183 61.79,421.59 C61.6311895,424.755382 61.9241325,427.927247 62.66,431.01 C66.1548578,445.905828 79.1157128,456.66979 94.4,457.37 L94.4,457.37 Z" id="Path" fill="#74D5DE" fill-rule="nonzero"></path>
                <path d="M104.15,356.62 C112.05,357.49 119.73,359.94 127.65,360.43 C135.57,360.92 144.28,359.03 149.29,352.87 C151.99,349.55 153.34,345.35 155.62,341.73 C157.780383,338.357021 160.741692,335.570918 164.24,333.62 C170.18642,345.456919 168.76712,359.662548 160.596343,370.089003 C152.425565,380.515458 138.971154,385.289671 126.055882,382.34547 C113.14061,379.401268 103.08465,369.267563 100.24,356.33 C101.57,356.39 102.87,356.48 104.15,356.62 Z" id="Path" fill="#000000" fill-rule="nonzero" opacity="0.1"></path>
                <path d="M94.4,457.37 C106.393203,457.922973 117.799885,452.153981 124.461946,442.166006 C131.124008,432.178031 132.068073,419.430389 126.95,408.57 C124.233294,410.396795 121.896795,412.733294 120.07,415.45 C117.63,419.13 116.16,423.38 113.29,426.76 C107.96,433.02 98.86,435.07 90.6,434.7 C82.34,434.33 74.37,431.97 66.15,431.22 C65.01,431.12 63.85,431.04 62.7,431.01 C66.1907536,445.892106 79.1308331,456.652374 94.4,457.37 L94.4,457.37 Z" id="Path" fill="#000000" fill-rule="nonzero" opacity="0.1"></path>
                <path d="M177.46,512.64 C189.332692,513.19756 200.643886,507.552678 207.336354,497.730125 C214.028823,487.907571 215.143288,475.315282 210.28,464.47 C207.462382,466.341781 205.011862,468.714345 203.05,471.47 C200.39,475.22 198.73,479.54 195.62,483 C189.85,489.43 180.15,491.7 171.4,491.49 C162.93,491.31 154.77,489.23 146.35,488.58 C150.620667,502.349656 163.058888,511.969187 177.46,512.64 Z" id="Path" fill="#000000" fill-rule="nonzero" opacity="0.1"></path>
                <path d="M160.57,579.06 C167.643375,592.845059 183.100486,600.152757 198.242752,596.870643 C213.385018,593.588529 224.429151,580.536639 225.16,565.06 C225.398869,560.328111 224.639065,555.598929 222.93,551.18 C220.114729,553.029194 217.587544,555.283443 215.43,557.87 C212.18,561.87 210.03,566.33 206.27,570.03 C199.27,576.89 187.98,579.73 177.93,580.03 C172.129249,580.05001 166.332414,579.726109 160.57,579.06 Z" id="Path" fill="#000000" fill-rule="nonzero" opacity="0.1"></path>
                <polygon id="Path" fill="#FD8369" fill-rule="nonzero" points="431.22 664.95 299.22 691.95 296.22 691.65 180.22 679.95 180.22 532.95 322.22 508.95 425.22 520.95 425.25 521.6 425.26 521.92"></polygon>
                <polygon id="Path" fill="#000000" fill-rule="nonzero" opacity="0.1" points="431.22 664.95 299.22 691.95 296.22 691.65 296.22 540.95 425.25 521.6"></polygon>
                <polygon id="Path" fill="#000000" fill-rule="nonzero" opacity="0.05" points="425.26 521.92 425.22 521.95 296.22 540.95 180.22 532.95 322.22 508.95 425.22 520.95 425.25 521.6"></polygon>
                <polygon id="Path" fill="#DE8E68" fill-rule="nonzero" points="576.22 670.95 444.22 697.95 441.22 697.65 325.22 685.95 325.22 538.95 467.22 514.95 570.22 526.95 570.25 527.6 570.26 527.92"></polygon>
                <polygon id="Path" fill="#000000" fill-rule="nonzero" opacity="0.1" points="576.22 670.95 444.22 697.95 441.22 697.65 441.22 546.95 570.25 527.6"></polygon>
                <polygon id="Path" fill="#000000" fill-rule="nonzero" opacity="0.05" points="570.26 527.92 570.22 527.95 441.22 546.95 325.22 538.95 467.22 514.95 570.22 526.95 570.25 527.6"></polygon>
                <polygon id="Path" fill="#DE8E68" fill-rule="nonzero" points="485.22 526.95 353.22 553.95 350.22 553.65 234.22 541.95 234.22 394.95 376.22 370.95 479.22 382.95 479.25 383.6 479.26 383.92"></polygon>
                <polygon id="Path" fill="#000000" fill-rule="nonzero" opacity="0.1" points="485.22 526.95 353.22 553.95 350.22 553.65 350.22 402.95 479.25 383.6"></polygon>
                <polygon id="Path" fill="#000000" fill-rule="nonzero" opacity="0.05" points="479.26 383.92 479.22 383.95 350.22 402.95 234.22 394.95 376.22 370.95 479.22 382.95 479.25 383.6"></polygon>
                <polygon id="Path" fill="#DE8E68" fill-rule="nonzero" points="560.22 533.11 491.33 547.21 489.76 547.05 429.22 540.94 429.22 464.22 503.33 451.69 557.09 457.96 557.11 458.3 557.11 458.46"></polygon>
                <polygon id="Path" fill="#000000" fill-rule="nonzero" opacity="0.1" points="560.22 533.11 491.33 547.21 489.76 547.05 489.76 468.4 557.11 458.3"></polygon>
                <polygon id="Path" fill="#000000" fill-rule="nonzero" opacity="0.05" points="557.11 458.46 557.09 458.48 489.76 468.4 429.22 464.22 503.33 451.69 557.09 457.96 557.11 458.3"></polygon>
                <polygon id="Path" fill="#DE8E68" fill-rule="nonzero" points="375.22 384.11 306.33 398.2 304.76 398.05 244.22 391.94 244.22 315.22 318.33 302.69 372.09 308.96 372.11 309.3 372.11 309.46"></polygon>
                <polygon id="Path" fill="#000000" fill-rule="nonzero" opacity="0.1" points="375.22 384.11 306.33 398.2 304.76 398.05 304.76 319.4 372.11 309.3"></polygon>
                <polygon id="Path" fill="#000000" fill-rule="nonzero" opacity="0.05" points="372.11 309.46 372.09 309.48 304.76 319.4 244.22 315.22 318.33 302.69 372.09 308.96 372.11 309.3"></polygon>
                <polygon id="Path" fill="#FD8369" fill-rule="nonzero" points="496.22 381.11 427.33 395.2 425.76 395.05 365.22 388.94 365.22 312.22 439.33 299.69 493.09 305.96 493.11 306.3 493.11 306.46"></polygon>
                <polygon id="Path" fill="#000000" fill-rule="nonzero" opacity="0.1" points="496.22 381.11 427.33 395.2 425.76 395.05 425.76 316.4 493.11 306.3"></polygon>
                <polygon id="Path" fill="#000000" fill-rule="nonzero" opacity="0.05" points="493.11 306.46 493.09 306.48 425.76 316.4 365.22 312.22 439.33 299.69 493.09 305.96 493.11 306.3"></polygon>
                <polygon id="Path" fill="#DE8E68" fill-rule="nonzero" points="532.22 304.11 463.33 318.2 461.76 318.05 401.22 311.94 401.22 235.22 475.33 222.69 529.09 228.96 529.11 229.3 529.11 229.46"></polygon>
                <polygon id="Path" fill="#000000" fill-rule="nonzero" opacity="0.1" points="532.22 304.11 463.33 318.2 461.76 318.05 461.76 239.4 529.11 229.3"></polygon>
                <polygon id="Path" fill="#000000" fill-rule="nonzero" opacity="0.05" points="529.11 229.46 529.09 229.48 461.76 239.4 401.22 235.22 475.33 222.69 529.09 228.96 529.11 229.3"></polygon>
                <path d="M579.14,147.27 C578.41,153.77 573.45,159.01 571.61,165.27 C568.85,174.72 573.61,184.87 580.17,192.27 C590.848718,204.14644 605.836479,211.255003 621.79,212.01 C624.110284,212.209685 626.44724,211.95493 628.67,211.26 C630.649305,210.454439 632.432764,209.233639 633.9,207.68 C638.82,202.73 641.47,195.88 642.52,188.97 C643.57,182.06 643.17,175.03 642.76,168.06 C642.759451,166.617544 642.495102,165.187349 641.98,163.84 C641.310461,162.558613 640.388643,161.4259 639.27,160.51 C635.723245,157.250571 631.814372,154.408669 627.62,152.04 C625.82,151.04 623.89,150.04 622.74,148.31 C621.950835,146.932344 621.437927,145.414002 621.23,143.84 L619.94,137.28 C619.711844,135.388561 619.066289,133.571444 618.05,131.96 C615.78,128.9 611.43,128.48 607.62,128.33 L593.62,127.78 C589.27,127.61 583.55,126.36 579.3,127.22 C575.3,128.01 576.65,131.67 577.37,134.99 C578.411567,139.005431 579.005186,143.123872 579.14,147.27 L579.14,147.27 Z" id="Path" fill="#FFC0C6" fill-rule="nonzero"></path>
                <path d="M579.14,147.27 C578.41,153.77 573.45,159.01 571.61,165.27 C568.85,174.72 573.61,184.87 580.17,192.27 C590.848718,204.14644 605.836479,211.255003 621.79,212.01 C624.110284,212.209685 626.44724,211.95493 628.67,211.26 C630.649305,210.454439 632.432764,209.233639 633.9,207.68 C638.82,202.73 641.47,195.88 642.52,188.97 C643.57,182.06 643.17,175.03 642.76,168.06 C642.759451,166.617544 642.495102,165.187349 641.98,163.84 C641.310461,162.558613 640.388643,161.4259 639.27,160.51 C635.723245,157.250571 631.814372,154.408669 627.62,152.04 C625.82,151.04 623.89,150.04 622.74,148.31 C621.950835,146.932344 621.437927,145.414002 621.23,143.84 L619.94,137.28 C619.711844,135.388561 619.066289,133.571444 618.05,131.96 C615.78,128.9 611.43,128.48 607.62,128.33 L593.62,127.78 C589.27,127.61 583.55,126.36 579.3,127.22 C575.3,128.01 576.65,131.67 577.37,134.99 C578.411567,139.005431 579.005186,143.123872 579.14,147.27 L579.14,147.27 Z" id="Path" fill="#000000" fill-rule="nonzero" opacity="0.1"></path>
                <path d="M668.05,440.03 L662.11,505.15 C660.56,522.23 658.98,539.38 655.94,556.24 C654.94,562.05 653.66,567.83 652.2,573.56 C648.14,589.47 642.25,605.02 640.35,621.33 C640.29,621.8 640.24,622.33 640.19,622.76 C639.8,626.36 639.46,630 638.19,633.36 C637.19,635.85 635.78,638.12 634.75,640.58 C632.75,645.5 632.43,650.94 632.18,656.27 C624.971583,652.200695 617.077448,649.489099 608.89,648.27 C604.89,647.68 600.54,647.27 597.89,644.27 C594.89,641.01 595.24,636.02 595.74,631.64 C597.313333,618.04 598.88,604.446667 600.44,590.86 C600.960033,585.013733 601.963464,579.220591 603.44,573.54 C603.98,571.65 604.63,569.79 605.29,567.93 C606.2,565.37 607.12,562.81 607.81,560.18 C608.766995,555.954475 609.428595,551.66744 609.79,547.35 C611.4,533.67 613.34,520.02 615.04,506.35 L615.13,505.63 C617.68,484.91 619.62,464.09 619.06,443.22 C618.98,440.13 618.85,437.04 618.65,433.94 C618.37,429.45 617.96,427.07 621.65,424.26 C625.76,421.16 631.17,418.99 635.87,416.96 C638.4,415.86 666.26,405.96 666.87,408.14 C668.163367,412.770533 668.835916,417.552353 668.87,422.36 C668.92639,428.260683 668.652628,434.1599 668.05,440.03 L668.05,440.03 Z" id="Path" fill="#605D82" fill-rule="nonzero"></path>
                <path d="M655.94,556.24 C654.94,562.05 653.66,567.83 652.2,573.56 C648.14,589.47 642.25,605.02 640.35,621.33 C640.29,621.8 640.24,622.33 640.19,622.76 C627.77,605.02 617.31,585.94 605.19,568.01 C606.1,565.45 607.02,562.89 607.71,560.26 C608.704322,556.010591 609.399361,551.696672 609.79,547.35 C611.4,533.67 613.34,520.02 615.04,506.35 L615.13,505.63 C615.831711,508.53096 616.837267,511.349868 618.13,514.04 C626.27,530.58 645.61,538.94 655.07,554.77 C655.383333,555.263333 655.673333,555.753333 655.94,556.24 Z" id="Path" fill="#000000" fill-rule="nonzero" opacity="0.1"></path>
                <path d="M555.16,410.82 C555.57,424.08 557.69,437.23 559.81,450.33 L564.18,477.33 C566.57,492.13 569.07,507.22 576.07,520.47 C581.31,530.39 588.85,538.85 595.68,547.74 C612.46,569.6 625.07,594.37 640.98,616.87 C645.61,623.41 652.22,630.49 660.11,629.12 C665.29,628.23 669.05,623.91 673.11,620.59 C677.91,616.67 683.69,613.8 687.47,608.88 C691.25,603.96 691.99,595.8 686.87,592.3 C685.12,591.11 682.99,590.66 681.01,589.9 C673.08,586.9 667.94,579.14 664.68,571.3 C661.42,563.46 659.43,555.05 655.08,547.76 C645.62,531.93 626.27,523.57 618.13,507.02 C613.57,497.76 613.13,487.02 612.79,476.75 L611.9,450.44 C611.8,447.56 611.73,444.57 612.9,441.94 C616.01,434.94 625.41,434.28 633.03,433.39 C641.671531,432.381009 650.04302,429.740953 657.7,425.61 C662.09,423.24 666.37,420.22 668.7,415.82 C670.84,411.82 671.13,407.11 671.38,402.57 L674.02,354.88 C674.25,350.78 674.45,346.53 673.02,342.69 C669.39,333.03 657.19,329.87 646.88,330.33 C627.7,331.19 610,339.44 591.88,345.02 C587.39,346.4 582.88,347.64 578.25,348.57 C574.25,349.38 569.25,349.05 565.41,350.35 C558.53,352.67 558.7,367.73 557.73,373.97 C555.728574,386.146606 554.868175,398.483457 555.16,410.82 L555.16,410.82 Z" id="Path" fill="#605D82" fill-rule="nonzero"></path>
                <path d="M657.51,631.14 C659.2,632.85 659.75,635.35 660.19,637.71 C662.634338,650.807423 663.906039,664.096703 663.99,677.42 C663.880519,678.663047 664.126761,679.9116 664.7,681.02 C665.179452,681.676824 665.824797,682.194479 666.57,682.52 C671.46,684.85 677.13,681.6 681.21,678.03 C688.76,671.42 695.15,662.54 695.58,652.51 C695.69,649.93 695.4,647.32 695.85,644.77 C696.51,640.99 698.72,637.7 700.66,634.4 C703.979329,628.775092 706.662503,622.798323 708.66,616.58 C709.4,614.24 709.9,611.3 708.06,609.67 C707.415654,609.157924 706.678988,608.774314 705.89,608.54 L683.79,600.34 C681.87,599.63 677.11,611.86 676.36,613.2 C674.51,616.47 672.67,618.32 668.96,619.08 C665.25,619.84 660.67,618.74 657.13,620.63 C651.13,623.82 654.12,627.73 657.51,631.14 Z" id="Path" fill="#535070" fill-rule="nonzero"></path>
                <path d="M623.43,638.69 C623.020386,637.873325 622.448775,637.148604 621.75,636.56 C620.728872,635.909735 619.566014,635.515255 618.36,635.41 C614.16,634.69 609.18,634.22 606.27,637.35 C603.55,640.28 604.02,645.05 601.75,648.35 C601.03,649.35 600.05,650.25 599.43,651.35 C598.659345,653.033821 598.315869,654.881721 598.43,656.73 C598.31,661.82 598.19,666.93 598.55,672.01 C598.84,676.27 599.55,680.74 602.22,684.08 C606.5,689.44 614.22,690.21 621.06,690.55 L626.61,690.84 C628.136058,691.018609 629.682608,690.875536 631.15,690.42 C632.987533,689.574991 634.40254,688.019205 635.07,686.11 C637.96,678.93 633.39,671.2 630.57,664 C627.32,655.71 627.9,646.52 623.43,638.69 Z" id="Path" fill="#535070" fill-rule="nonzero"></path>
                <path d="M577.54,110.62 C577.469072,109.892101 577.575435,109.157851 577.85,108.48 C578.66,107.05 580.78,107.48 582.38,107.84 C588.81,109.46 595.59,107.99 602.22,108.37 C608.85,108.75 616.31,112.06 617.64,118.56 C622.450009,115.155951 626.595194,110.898916 629.87,106 C631.71,103.25 633.31,100.1 633.06,96.8 C632.7,92.04 628.71,88.48 625.06,85.46 L614.06,76.46 C612.61091,75.1308276 610.938591,74.0678555 609.12,73.32 C606.58,72.45 603.8,72.87 601.12,72.87 C593.12,72.87 584.54,69.22 577.41,72.87 C574.41,74.4 572.18,77.03 570.02,79.59 L560.19,91.23 C559.445917,91.9719875 558.902285,92.8906562 558.61,93.9 C558.33,95.32 559.06,96.72 559.32,98.15 C559.78,100.75 558.66,103.53 559.52,106.03 C560.95,110.17 565.99,110.76 569.07,113.14 C570.21,114.02 572.01,117.03 573.38,116.99 C575.79,116.94 577.47,112.54 577.54,110.62 Z" id="Path" fill="#3F3D56" fill-rule="nonzero"></path>
                <circle id="Oval" fill="#FFC0C6" fill-rule="nonzero" cx="594.22" cy="113.45" r="31.5"></circle>
                <path d="M601.6,182.38 C599.410616,176.11554 593.423697,171.984121 586.79,172.16 C585.862663,172.336932 584.903085,172.214358 584.05,171.81 C583.566423,171.440797 583.178836,170.960601 582.92,170.41 C581.010306,166.962481 579.471698,163.322114 578.33,159.55 C577.83,157.88 577.14,155.91 575.45,155.48 C574.09,155.13 572.7,156.01 571.79,157.08 C570.983406,158.228195 570.108494,159.326844 569.17,160.37 C565.17,163.91 558.17,160.68 553.98,163.93 C553.29,164.46 552.72,165.14 551.98,165.63 C551.260042,166.068733 550.482607,166.405286 549.67,166.63 C541.536448,169.27608 533.563081,172.391302 525.79,175.96 C528.59,192.8 531.45,209.96 538.01,225.71 C541.13,233.21 544.66,240.56 547.16,248.29 C552.7,265.42 552.94,283.75 553.01,301.76 C553.01,314.08 553.01,326.66 549.01,338.32 C548.11,340.96 547.01,343.58 546.76,346.32 C546.51,349.06 547.33,352.16 549.58,353.8 C550.882526,354.65914 552.37644,355.184585 553.93,355.33 C560.84,356.33 567.8,354.51 574.6,352.93 C592.83,348.71 611.43,346.29 629.98,343.93 L661.08,339.93 C663.311078,339.773978 665.494254,339.207844 667.52,338.26 C673.21,335.15 673.75,326.59 670.21,321.15 C668.52,318.54 666.13,316.4 664.7,313.64 C663.27,310.88 663.16,307 665.61,305.09 C670.61,301.19 669.11,293.96 669.35,287.64 C670.016667,269.96 669.926667,252.293333 669.08,234.64 C668.825446,230.9791 668.765361,227.307269 668.9,223.64 C669.25,217.42 670.79,211.33 672.33,205.28 L681.78,168.08 C679.31,164.18 674.58,161.7 670.11,160.58 C665.64,159.46 660.97,159.13 656.56,157.76 C647.56,154.96 639.48,147.86 630.05,148.52 C629.334865,148.53273 628.631398,148.703474 627.99,149.02 C625.87,150.23 626.2,153.29 626.07,155.73 C625.77,161.14 621.79,165.65 617.41,168.82 C613.03,171.99 608.01,174.29 603.98,177.9 C602.563335,178.968017 601.691968,180.608238 601.6,182.38 Z" id="Path" fill="#3F3D56" fill-rule="nonzero"></path>
                <path d="M476.79,217.67 C474.703622,219.026397 472.485726,220.168848 470.17,221.08 C467.97,221.95 465.62,222.64 463.82,224.16 C462.928792,224.933217 462.180703,225.857327 461.61,226.89 C459.439559,230.741216 459.536135,235.468255 461.862065,239.227607 C464.187995,242.986959 468.374932,245.183272 472.79,244.96 C475.68,244.81 478.41,243.64 481.06,242.49 L503.28,232.82 C507.04,231.19 511.1,229.29 512.88,225.59 C513.083977,225.24359 513.161714,224.837238 513.1,224.44 C512.927907,224.004141 512.600032,223.647756 512.18,223.44 C507.172765,220.182259 502.792912,216.049683 499.25,211.24 C498.34,210 497.25,207.08 495.93,206.33 C491.23,203.72 480.56,215.23 476.79,217.67 Z" id="Path" fill="#FFC0C6" fill-rule="nonzero"></path>
                <path d="M714.31,209.82 L722.5,219.18 C724.26,221.18 726.02,223.18 727.62,225.34 C731.557375,230.762514 734.714793,236.710444 737,243.01 C738.78,247.68 740.26,252.66 739.64,257.62 C739.224527,260.162892 738.537256,262.653832 737.59,265.05 C736.0896,269.65656 734.227124,274.137205 732.02,278.45 C730.176904,281.722486 728.09457,284.854342 725.79,287.82 C719.446411,296.225514 712.505086,304.162755 705.02,311.57 C702.22,314.34 701.02,318.83 699.83,322.57 C697.58,329.48 692.23,334.87 687.06,339.97 C685.397148,341.727903 683.557414,343.309606 681.57,344.69 C678.593517,346.610619 675.111667,347.599464 671.57,347.53 C670.024622,347.538845 668.494721,347.221961 667.08,346.6 C663.54,344.92 661.74,340.83 661.37,336.93 C661.04324,333.386228 661.635638,329.818064 663.09,326.57 C667.79,316.16 679.86,311.65 688.39,304.05 C693.39,299.6 697.22,294 701,288.47 C703.560244,285.013406 705.698706,281.263543 707.37,277.3 C709.27,272.21 708.53,266.19 710.2,261.03 C710.9,258.84 712.2,256.87 712.91,254.7 C713.62,252.53 713.86,249.96 712.53,248.09 C711.533443,246.894575 710.259827,245.960819 708.82,245.37 C703.37,242.61 697.27,239.05 696.23,233.02 C695.813469,229.680681 696.686092,226.308208 698.67,223.59 C700.643141,220.906476 702.951933,218.486781 705.54,216.39 C707.91,214.25 711.92,211.88 714.31,209.82 Z" id="Path" fill="#FFC0C6" fill-rule="nonzero"></path>
                <path d="M471.53,230.73 C470.09,227.81 468.28,224.83 465.36,223.38 C462.487939,222.14094 459.232061,222.14094 456.36,223.38 C453.530359,224.603397 450.879569,226.204635 448.48,228.14 L441.42,233.35 C439.81963,234.40031 438.40388,235.707935 437.23,237.22 C436.11038,239.054561 435.369164,241.094607 435.05,243.22 C434.05,248.09 433.24,253.1 433.94,258.03 C435.06,266.03 439.86,272.95 445.14,279.03 C448.44,282.81 452.52,286.63 457.54,286.8 C459.71,286.87 462.12,286.01 463.02,284.04 C463.333797,283.257281 463.499931,282.423218 463.51,281.58 C464.05,272.7 460.87,264.03 457.17,255.94 C456.17,253.74 455.09,251.46 455.17,249.05 C455.139313,248.640828 455.244788,248.232991 455.47,247.89 C455.787439,247.557336 456.212719,247.34824 456.67,247.3 C461.74,246.3 470.48,250.24 474.03,244.61 C476.33,240.89 473.17,234.04 471.53,230.73 Z" id="Path" fill="#FFC0C6" fill-rule="nonzero"></path>
                <path d="M575.88,100.71 C575.817283,99.9814397 575.926905,99.2483453 576.2,98.57 C577.01,97.13 579.13,97.57 580.73,97.93 C587.16,99.55 593.94,98.08 600.57,98.46 C607.2,98.84 614.65,102.15 615.99,108.65 C620.79532,105.240469 624.93959,100.984375 628.22,96.09 C630.06,93.33 631.66,90.18 631.41,86.88 C631.05,82.12 627.05,78.56 623.41,75.55 L612.41,66.55 C610.96455,65.2209835 609.295535,64.1579598 607.48,63.41 C604.93,62.54 602.16,62.96 599.48,62.96 C591.48,62.96 582.9,59.31 575.77,62.96 C572.77,64.49 570.54,67.12 568.38,69.68 L558.54,81.32 C557.800242,82.0636407 557.260219,82.9820235 556.97,83.99 C556.69,85.41 557.42,86.81 557.68,88.24 C558.14,90.84 557.02,93.62 557.88,96.11 C559.31,100.26 564.35,100.85 567.43,103.23 C568.57,104.11 570.37,107.12 571.74,107.08 C574.11,107.03 575.79,102.63 575.88,100.71 Z" id="Path" fill="#3F3D56" fill-rule="nonzero"></path>
                <path d="M508.98,187.03 C507.710394,187.854352 506.593769,188.893152 505.68,190.1 C504.53,191.85 504.29,194.1 503.3,195.9 C501.18,199.84 496.21,201.25 493.12,204.48 C492.619046,204.921532 492.26928,205.509138 492.12,206.16 C492.100983,207.039562 492.395152,207.897259 492.95,208.58 L507.89,232.06 C512.89,232.5 517.63,229.38 522.61,229.8 C524.46,229.95 526.37,230.59 528.15,230.04 C529.422211,229.473258 530.615506,228.743836 531.7,227.87 C534.7,225.99 538.62,225.77 541.11,223.3 C543.6,220.83 543.81,217.2 543.78,213.83 C543.824857,210.905162 543.526146,207.985172 542.89,205.13 C540.69,196.13 533.8,189.19 529.48,181.21 C527.37,177.32 526.23,175.05 521.78,177.72 C517.33,180.39 513.19,183.95 508.98,187.03 Z" id="Path" fill="#3F3D56" fill-rule="nonzero"></path>
                <path d="M690.39,175.16 C693.197887,176.983153 695.730253,179.198973 697.91,181.74 C700.18,184.67 701.47,188.27 703.66,191.27 C705.85,194.27 708.66,196.43 711.06,199.11 C714.71,203.17 717.18,208.11 719.6,213.02 C713.675849,220.727982 707.220114,228.012404 700.28,234.82 C699.505878,235.730373 698.484787,236.397208 697.34,236.74 C695.763509,236.909419 694.207571,236.274265 693.2,235.05 C692.12,233.93 691.36,232.53 690.33,231.36 C687.903402,228.857314 684.668837,227.294945 681.2,226.95 C677.760026,226.614911 674.29824,226.56474 670.85,226.8 C670.093127,226.889736 669.326372,226.761365 668.64,226.43 C668.129376,226.079283 667.716414,225.604377 667.44,225.05 C663.44,218.17 664.69,209.53 666.12,201.67 L669.39,183.67 C669.867248,180.233356 670.784784,176.872419 672.12,173.67 C673.36,171.02 676.12,166.52 679.54,167.32 C682.96,168.12 687.5,173.08 690.39,175.16 Z" id="Path" fill="#3F3D56" fill-rule="nonzero"></path>
                <polygon id="Path" fill="#FD8369" fill-rule="nonzero" points="405.22 307.11 336.33 321.2 334.76 321.05 274.22 314.94 274.22 238.22 348.33 225.69 402.09 231.96 402.11 232.3 402.11 232.46"></polygon>
                <polygon id="Path" fill="#000000" fill-rule="nonzero" opacity="0.1" points="405.22 307.11 336.33 321.2 334.76 321.05 334.76 242.4 402.11 232.3"></polygon>
                <polygon id="Path" fill="#000000" fill-rule="nonzero" opacity="0.05" points="402.11 232.46 402.09 232.48 334.76 242.4 274.22 238.22 348.33 225.69 402.09 231.96 402.11 232.3"></polygon>
                <polygon id="Path" fill="#DE8E68" fill-rule="nonzero" points="441.22 231.11 372.33 245.21 370.76 245.05 310.22 238.94 310.22 162.22 384.33 149.69 438.09 155.96 438.11 156.3 438.11 156.46"></polygon>
                <polygon id="Path" fill="#000000" fill-rule="nonzero" opacity="0.1" points="441.22 231.11 372.33 245.21 370.76 245.05 370.76 166.4 438.11 156.3"></polygon>
                <polygon id="Path" fill="#000000" fill-rule="nonzero" opacity="0.05" points="438.11 156.46 438.09 156.48 370.76 166.4 310.22 162.22 384.33 149.69 438.09 155.96 438.11 156.3"></polygon>
            </g>
        </g>
    </g>
</svg>
