<?xml version="1.0" encoding="UTF-8"?>
<svg width="927px" height="534px" viewBox="0 0 927 534" version="1.1" xmlns="http://www.w3.org/2000/svg" xmlns:xlink="http://www.w3.org/1999/xlink">
    <!-- Generator: Sketch 64 (93537) - https://sketch.com -->
    <title>Page 1</title>
    <desc>Created with Sketch.</desc>
    <g id="Page-1" stroke="none" stroke-width="1" fill="none" fill-rule="evenodd">
        <g id="Artboard" transform="translate(-176.000000, -379.000000)">
            <g id="undraw_video_influencer_9oyy" transform="translate(176.000000, 379.000000)" fill-rule="nonzero">
                <path d="M651.52261,279.3581 L592.41107,307.33456 L644.72735,268.21516 C636.224506,254.943281 626.672428,242.373674 616.16272,230.62688 L359.80318,294.3463 L591.36811,206.0123 C580.786395,196.675931 569.548777,188.11041 557.74172,180.38164 L167.11013,243.30211 C125.634951,295.166619 103.025587,359.59129 102.99365,426 L691,426 C690.97618,374.496849 677.358375,323.912431 651.52261,279.3581 L651.52261,279.3581 Z" id="Path" fill="#F2F2F2"></path>
                <path d="M525.77137,162.21756 C404.068349,103.024375 257.68286,134.490952 171.05409,238.4665 C263.40437,218.2317 424.19358,183.2041 525.77137,162.21756 Z" id="Path" fill="#F2F2F2"></path>
                <path d="M472.47446,167.89506 C462.41137,197.68935 446.98095,224.83642 415.53311,224.83642 C384.08527,224.83642 360.36367,199.29294 358.59175,167.89506 C356.3276,127.77483 383.35982,110.78752 415.53311,110.9537 C453.54062,111.15 484.41694,132.53648 472.47446,167.89506 Z" id="Path" fill="#2F2E41"></path>
                <rect id="Rectangle" fill="#2F2E41" x="368.55512" y="160.3202" width="93.13746" height="135.7331"></rect>
                <path d="M401.23037,238.25411 C401.23037,238.25411 404.20937,280.95357 397.25837,287.90465 C390.30737,294.85573 458.825,300.81379 457.832,292.8697 C456.839,284.92561 443.92985,233.28906 447.9019,222.36594 C451.87395,211.44282 401.23037,238.25411 401.23037,238.25411 Z" id="Path" fill="#FFB8B8"></path>
                <path d="M401.23037,238.25411 C401.23037,238.25411 404.20937,280.95357 397.25837,287.90465 C390.30737,294.85573 458.825,300.81379 457.832,292.8697 C456.839,284.92561 443.92985,233.28906 447.9019,222.36594 C451.87395,211.44282 401.23037,238.25411 401.23037,238.25411 Z" id="Path" fill="#000000" opacity="0.1"></path>
                <path d="M123.551167,414.531815 C125.034718,415.828077 126.545998,417.147591 128.45243,417.961387 C130.338846,418.663582 132.346754,419.109014 134.400497,419.280901 C155.401288,421.993557 176.328132,425.027856 197.18103,428.383799 C203.05284,429.337104 208.966245,430.325286 214.512229,432.237708 C217.34068,433.220077 220.058212,434.440773 222.831204,435.469644 C238.775906,441.334794 256.800353,440.95696 274.193943,440.468682 C277.597791,440.375676 281.126423,440.25942 284.197511,439.067789 C286.492162,438.190051 288.592703,436.521767 288.800677,434.417521 C289.161166,430.761248 284.204444,428.604687 280.245998,427.029409 C270.797029,423.291756 262.561243,417.211532 257.583723,409.503713 C256.696366,408.14351 255.975388,406.312467 257.223234,405.161526 C258.159119,404.301227 259.746656,404.295414 261.140085,404.341917 C266.963367,404.531802 272.78665,404.481425 278.609933,404.190783 C281.625561,404.033836 285.618669,402.836392 285.140328,400.342687 C284.932354,399.273125 283.878617,398.476767 282.88034,397.779227 C277.632453,394.082264 271.677453,390.274857 264.821231,390.385301 C261.223275,390.44343 257.791697,391.594371 254.422512,392.565114 C236.273281,397.726911 216.730622,398.01174 197.576182,397.907109 C192.889826,397.907109 188.168807,397.831542 183.579506,397.029371 C179.810048,396.281983 176.117302,395.284856 172.536066,394.047387 C160.917231,390.332986 149.249868,386.595333 138.49066,381.381221 C134.21332,379.311852 129.443774,376.916964 124.674229,377.980713 C122.534354,378.563429 120.587327,379.558897 118.989596,380.88713 C113.311895,385.188627 108.521552,390.455055 110.136819,397.058435 C111.779817,403.998959 117.908129,409.590906 123.551167,414.531815 Z" id="Path" fill="#FBBEBE" transform="translate(199.319261, 409.219471) scale(-1, 1) rotate(-50.000000) translate(-199.319261, -409.219471) "></path>
                <path d="M335.7,347.49 L300.02,468.14 L298.59009,473 L238.55009,473 C262.43994,399.05 321.5,290 321.5,290 L330.72,287.91 L335.7,347.49 Z" id="Path" fill="#6C63FF"></path>
                <path d="M335.7,347.49 L300.02,468.14 L298.59009,473 L238.55009,473 C262.43994,399.05 321.5,290 321.5,290 L330.72,287.91 L335.7,347.49 Z" id="Path" fill="#000000" opacity="0.1"></path>
                <circle id="Oval" fill="#FFB8B8" cx="413.1465" cy="208.46379" r="44.68548"></circle>
                <path d="M460.811,279.96056 C460.811,279.96056 444.92282,294.85572 427.04863,291.87669 C409.17444,288.89766 401.67063,267.16161 401.67063,267.16161 L384.34918,279.96056 C384.34918,279.96056 379.38414,315.709 402.22338,319.681 C425.06262,323.653 457.83198,324.64605 464.78306,319.681 C471.73414,314.71595 460.811,279.96056 460.811,279.96056 Z" id="Path" fill="#3F3D56"></path>
                <path d="M515.42993,332.58 L512.58008,341.84 L472.35,473 L299.21,473 C299.578217,471.397905 299.848736,469.774913 300.02006,468.14 C302.26006,449.47 300.93998,402.37 300.93998,399.13 C300.93998,395.15 317.8101,296.85 321.80009,289.89 C322.418325,289.048084 323.231523,288.368665 324.16996,287.91 C328.80009,285.25 339.04008,282.27 350.08012,279.64 C350.09012,279.63 350.09012,279.63 350.10002,279.63 C356.27002,278.13 362.71002,276.75 368.55009,275.58 L368.56009,275.58 C374.29009,274.43 379.42996,273.49 383.18997,272.87 C385.217333,272.481216 387.263441,272.197505 389.3201,272.02 C390.24002,272.02 390.90994,273.11 391.36002,274.78 C392.87002,280.22 392.29002,291.87 392.29002,291.87 C393.63134,293.410733 395.125674,294.811252 396.75002,296.05 C400.567781,299.050402 404.755439,301.547536 409.21002,303.48 C413.029243,305.154445 416.983352,306.502591 421.03,307.51 L421.04,307.51 C425.293246,308.587863 429.622446,309.340041 433.99,309.76 C437.549935,310.170025 441.148845,310.099392 444.68995,309.55 L444.70995,309.55 C455.23995,307.81 459.09995,301.27 460.90001,296.05 C461.21996,295.1 461.46996,294.19 461.68993,293.36 C461.68993,293.35 461.69993,293.33 461.69993,293.32 C462.35993,290.77 462.63999,288.98 463.34007,289.01 L463.35,289.01 C465.15993,289.18 487.99,308.75 502.82009,321.6 C509.86001,327.69 515.09009,332.29 515.40993,332.57 L515.42993,332.58 Z" id="Path" fill="#6C63FF"></path>
                <path d="M512.58008,341.84 L472.35,473 L456.04,473 C457.506539,470.85114 458.142646,468.242748 457.83,465.66 C457.31,462 468.63993,424.71 479.55,390.01 C489.46992,358.48 499.04,329.12 499.04,329.12 L508.46993,333.58 C508.46993,333.58 510.15991,336.77 512.58008,341.84 Z" id="Path" fill="#000000" opacity="0.1"></path>
                <path d="M541.25,460.68 C539.29,461.17 539.5,466.99 539.39,473 L462.33008,473 C464.223841,470.656343 465.108761,467.656248 464.79008,464.66 C464.28008,461.15 471.88008,424.96 479.55008,390.01 C485.58008,362.37 491.65994,335.5 493.77008,326.15 C494.29008,323.89 494.57008,322.67 494.57008,322.67 L495.47999,323.1 L495.49999,323.11 L515.4099,332.57 L515.4299,332.58 C515.4299,332.58 546.2099,391.18 536.29001,405.08 C526.34995,418.98 526.34995,418.98 530.32001,425.94 C534.29,432.88 545.21,459.69 541.25,460.68 Z" id="Path" fill="#6C63FF"></path>
                <circle id="Oval" fill="#2F2E41" cx="415.53311" cy="100.46451" r="22.47685"></circle>
                <path d="M388.56088,88.47685 C388.561747,76.9341318 397.305187,67.268234 408.79,66.1135 C408.05056,66.04006 407.30115,66 406.54231,66 C394.128689,66 384.06546,76.0632285 384.06546,88.47685 C384.06546,100.890471 394.128689,110.9537 406.54231,110.9537 C407.30115,110.9537 408.05056,110.91364 408.79,110.8402 C397.3052,109.685439 388.561775,100.019557 388.56088,88.47685 Z" id="Path" fill="#2F2E41"></path>
                <path d="M398.99959,152.16345 C398.99959,152.16345 398.53026,149.55078 380.17459,156.43417 C361.81892,163.31756 350.81585,214.114 359.99371,243.942 C363.69235,255.96258 360.68357,264.62945 355.77282,270.69346 C337.34467,293.44935 344.59907,327.62808 371.44108,339.32995 C372.198733,339.66025 372.97187,339.986763 373.76049,340.30949 L385.23281,347.19288 C385.23281,347.19288 370.60807,327.9498 377.92681,303.33435 C384.282638,282.361031 385.06754,260.094139 380.20426,238.72535 C379.3646,235.12059 378.41081,231.40477 377.32737,227.61274 C368.14951,195.49025 372.61323,199.19991 404.73572,167.07742 C404.73572,167.07742 423.09144,180.8442 439.15272,187.72759 C455.214,194.61098 468.98072,201.49438 457.50844,224.43902 C446.03616,247.38366 418.50255,268.03383 436.85826,297.86186 C455.21397,327.68989 457.50844,316.21757 455.21397,327.68986 L455.21397,327.68986 L452.91951,339.16218 L466.68629,325.3954 L457.50844,343.75111 C457.50844,343.75111 487.33644,343.75111 496.51432,320.80647 L501.10325,325.3954 C501.10325,325.3954 519.459,293.273 485.042,263.445 C485.042,263.445 473.56968,256.56161 489.63093,233.617 C505.69218,210.67239 493.35693,161.34139 472.70677,152.16353 C452.05661,142.98567 398.99959,152.16345 398.99959,152.16345 Z" id="Path" fill="#2F2E41"></path>
                <polygon id="Path" fill="#3F3D56" points="413.147 296.659 374.916 362.877 383.853 362.877 383.853 371.814 427.303 296.659"></polygon>
                <rect id="Rectangle" fill="#F2F2F2" x="757" y="429" width="155" height="61"></rect>
                <rect id="Rectangle" fill="#F2F2F2" x="776.5" y="507" width="116" height="10"></rect>
                <rect id="Rectangle" fill="#F2F2F2" x="776.5" y="525" width="116" height="8"></rect>
                <circle id="Oval" fill="#6C63FF" cx="16" cy="12" r="4"></circle>
                <circle id="Oval" fill="#6C63FF" cx="27" cy="12" r="4"></circle>
                <circle id="Oval" fill="#6C63FF" cx="38" cy="12" r="4"></circle>
                <path d="M927,534 L0,534 L0,0 L927,0 L927,534 Z M2,532 L925,532 L925,2 L2,2 L2,532 Z" id="Shape" fill="#2F2E41"></path>
                <rect id="Rectangle" fill="#2F2E41" x="1" y="20.08643" width="925" height="2"></rect>
                <rect id="Rectangle" fill="#2F2E41" x="12" y="37" width="30" height="2"></rect>
                <rect id="Rectangle" fill="#2F2E41" x="12" y="45" width="30" height="2"></rect>
                <rect id="Rectangle" fill="#2F2E41" x="12" y="53" width="30" height="2"></rect>
                <path d="M639,55 L267,55 L267,37 L639,37 L639,55 Z M269,53 L637,53 L637,39 L269,39 L269,53 Z" id="Shape" fill="#2F2E41"></path>
                <path d="M624,48.5 C621.790861,48.5 620,46.709139 620,44.5 C620,42.290861 621.790861,40.5 624,40.5 C626.209139,40.5 628,42.290861 628,44.5 C627.997647,46.7081634 626.208163,48.4976466 624,48.5 Z M624,42.5 C622.895431,42.5 622,43.3954305 622,44.5 C622,45.6045695 622.895431,46.5 624,46.5 C625.104569,46.5 626,45.6045695 626,44.5 C625.998738,43.3959536 625.104046,42.501262 624,42.5 Z" id="Shape" fill="#2F2E41"></path>
                <rect id="Rectangle" fill="#2F2E41" transform="translate(628.029813, 48.588663) rotate(-45.868430) translate(-628.029813, -48.588663) " x="627.029803" y="45.8436484" width="2.00002" height="5.49003"></rect>
                <path d="M863,55 L843,55 L843,37 L863,37 L863,55 Z M845,53 L861,53 L861,39 L845,39 L845,53 Z" id="Shape" fill="#2F2E41"></path>
                <path d="M888,55 L868,55 L868,37 L888,37 L888,55 Z M870,53 L886,53 L886,39 L870,39 L870,53 Z" id="Shape" fill="#2F2E41"></path>
                <path d="M913,55 L893,55 L893,37 L913,37 L913,55 Z M895,53 L911,53 L911,39 L895,39 L895,53 Z" id="Shape" fill="#2F2E41"></path>
                <rect id="Rectangle" fill="#FF6584" x="665" y="485" width="18" height="16"></rect>
                <rect id="Rectangle" fill="#F2F2F2" x="690" y="485" width="18" height="16"></rect>
                <rect id="Rectangle" fill="#F2F2F2" x="715" y="485" width="18" height="16"></rect>
                <path d="M732,474 L50,474 L50,86 L732,86 L732,474 Z M52,472 L730,472 L730,88 L52,88 L52,472 Z" id="Shape" fill="#2F2E41"></path>
                <path d="M153.61364,438.37587 L153.61364,447.77133 L138.00682,438.24633 C137.837766,438.146945 137.628469,438.145562 137.458117,438.242704 C137.287765,438.339846 137.182374,438.520678 137.18182,438.71678 L137.18182,459.30769 C137.182374,459.503792 137.287765,459.684624 137.458117,459.781766 C137.628469,459.878908 137.837766,459.877525 138.00682,459.77814 L153.61364,450.25314 L153.61364,459.64859 C153.614079,459.799028 153.735922,459.920875 153.88636,459.92132 L158.72727,459.92132 C158.877712,459.920881 158.999561,459.799032 159,459.64859 L159,438.37587 C158.999561,438.225428 158.877712,438.103579 158.72727,438.10314 L153.88636,438.10314 C153.735922,438.103585 153.614079,438.225432 153.61364,438.37587 Z" id="Path" fill="#3F3D56"></path>
                <path d="M111.99318,459.921343 L107.64318,459.921343 C107.497585,459.922322 107.357569,459.865391 107.253979,459.763078 C107.150389,459.660765 107.091724,459.521466 107.09091,459.37587 L107.09091,438.6486 C107.091724,438.503004 107.150389,438.363705 107.253979,438.261392 C107.357569,438.159079 107.497585,438.102148 107.64318,438.103127 L111.99318,438.103127 C112.138775,438.102148 112.278791,438.159079 112.382381,438.261392 C112.485971,438.363705 112.544636,438.503004 112.54545,438.6486 L112.54545,459.37587 C112.544636,459.521466 112.485971,459.660765 112.382381,459.763078 C112.278791,459.865391 112.138775,459.922322 111.99318,459.921343 Z M123.99318,459.921343 L119.64318,459.921343 C119.497585,459.922322 119.357569,459.865391 119.253979,459.763078 C119.150389,459.660765 119.091724,459.521466 119.09091,459.37587 L119.09091,438.6486 C119.091724,438.503004 119.150389,438.363705 119.253979,438.261392 C119.357569,438.159079 119.497585,438.102148 119.64318,438.103127 L123.99318,438.103127 C124.138775,438.102148 124.278791,438.159079 124.382381,438.261392 C124.485971,438.363705 124.544636,438.503004 124.54545,438.6486 L124.54545,459.37587 C124.544636,459.521466 124.485971,459.660765 124.382381,459.763078 C124.278791,459.865391 124.138775,459.922322 123.99318,459.921343 Z" id="Shape" fill="#3F3D56"></path>
                <path d="M79,438.66905 L79,459.35542 C78.9892079,459.550594 79.086192,459.735999 79.2526679,459.838446 C79.4191438,459.940892 79.6283606,459.943919 79.79773,459.84633 L96.19546,449.50315 C96.3584139,449.394455 96.4562835,449.211529 96.4562835,449.01565 C96.4562835,448.819771 96.3584139,448.636845 96.19546,448.52815 L79.79773,438.185 C79.629889,438.084521 79.4202323,438.085146 79.2529934,438.186624 C79.0857544,438.288102 78.988383,438.473777 79,438.66905 Z" id="Path" fill="#6C63FF"></path>
                <rect id="Rectangle" fill="#2F2E41" x="82.5" y="424" width="617" height="4"></rect>
                <rect id="Rectangle" fill="#6C63FF" x="82.5" y="424" width="107.5" height="4"></rect>
                <rect id="Rectangle" fill="#F2F2F2" x="51" y="487" width="283" height="11"></rect>
                <rect id="Rectangle" fill="#F2F2F2" x="51" y="512" width="62" height="11"></rect>
                <rect id="Rectangle" fill="#F2F2F2" x="757" y="107" width="155" height="61"></rect>
                <rect id="Rectangle" fill="#F2F2F2" x="776.5" y="185" width="116" height="10"></rect>
                <rect id="Rectangle" fill="#F2F2F2" x="776.5" y="203" width="116" height="10"></rect>
                <rect id="Rectangle" fill="#F2F2F2" x="776.5" y="221" width="116" height="10"></rect>
                <rect id="Rectangle" fill="#F2F2F2" x="757" y="268" width="155" height="61"></rect>
                <rect id="Rectangle" fill="#F2F2F2" x="776.5" y="346" width="116" height="10"></rect>
                <rect id="Rectangle" fill="#F2F2F2" x="776.5" y="364" width="116" height="10"></rect>
                <rect id="Rectangle" fill="#F2F2F2" x="776.5" y="382" width="116" height="10"></rect>
                <path d="M661.86274,425.82955 L659.79854,424.27102 C652.45867,418.62755 647.61906,414.97129 647.17785,409.9279 C646.974254,407.992209 647.562774,406.056526 648.809361,404.561746 C650.055949,403.066965 651.854458,402.140365 653.79524,401.993 C656.08854,401.804665 658.348682,402.634033 659.97585,404.261 C661.295757,402.376164 663.377568,401.166919 665.66875,400.95421 C667.605639,400.762346 669.537721,401.362582 671.024923,402.618202 C672.512124,403.873822 673.427813,405.677911 673.56342,407.61955 C674.00464,412.663 669.87335,417.10407 663.62496,423.93622 L661.86274,425.82955 Z" id="Path" fill="#FF6584"></path>
                <path d="M686.29109,400.12181 L685.15962,397.79593 C681.18247,389.43503 678.53062,383.97993 680.42756,379.28608 C681.125078,377.468989 682.528347,376.011572 684.317741,375.24579 C686.107134,374.480008 688.130287,374.471065 689.92638,375.221 C692.055165,376.094503 693.6923,377.859704 694.4033,380.04813 C696.435123,378.968099 698.83903,378.835958 700.97699,379.68678 C702.789821,380.395294 704.238711,381.807365 704.993642,383.601363 C705.748573,385.395361 705.745264,387.418531 704.98447,389.21005 C703.08756,393.90396 697.39018,395.98498 688.72084,399.23505 L686.29109,400.12181 Z" id="Path" fill="#FF6584"></path>
                <path d="M676.29109,467.12181 L675.15962,464.79593 C671.18247,456.43503 668.53062,450.97993 670.42756,446.28608 C671.125078,444.468989 672.528347,443.011572 674.317741,442.24579 C676.107134,441.480008 678.130287,441.471065 679.92638,442.221 C682.055165,443.094503 683.6923,444.859704 684.4033,447.04813 C686.435123,445.968099 688.83903,445.835958 690.97699,446.68678 C692.789821,447.395294 694.238711,448.807365 694.993642,450.601363 C695.748573,452.395361 695.745264,454.418531 694.98447,456.21005 C693.08756,460.90396 687.39018,462.98498 678.72084,466.23505 L676.29109,467.12181 Z" id="Path" fill="#FF6584"></path>
            </g>
            <rect id="Rectangle" fill="#F2B185" fill-rule="nonzero" x="230" y="686" width="256.35744" height="5.24708"></rect>
            <g id="Group-2" transform="translate(317.076072, 712.723461) rotate(-15.000000) translate(-317.076072, -712.723461) translate(300.576072, 673.223461)" fill="#74D5DE">
                <rect id="Rectangle" x="11" y="0" width="11" height="14" rx="3"></rect>
                <rect id="Rectangle" x="0" y="10" width="33" height="69" rx="10"></rect>
            </g>
            <g id="Group" transform="translate(348.000000, 629.000000)" fill="#FED385">
                <rect id="Rectangle" x="7" y="0" width="21" height="14" rx="3"></rect>
                <rect id="Rectangle" x="0" y="11" width="34" height="46" rx="5"></rect>
            </g>
            <g id="Group-3" transform="translate(402.000000, 640.000000)" fill="#ED8A70">
                <rect id="Rectangle" x="0" y="11" width="24" height="35" rx="4"></rect>
                <rect id="Rectangle" x="10" y="4" width="4" height="7"></rect>
                <ellipse id="Oval" cx="12" cy="3" rx="2" ry="3"></ellipse>
                <rect id="Rectangle" x="4" y="6" width="16" height="6" rx="2"></rect>
            </g>
        </g>
    </g>
</svg>
