<?xml version="1.0" encoding="UTF-8"?>
<svg width="678px" height="697px" viewBox="0 0 678 697" version="1.1" xmlns="http://www.w3.org/2000/svg" xmlns:xlink="http://www.w3.org/1999/xlink">
    <!-- Generator: Sketch 64 (93537) - https://sketch.com -->
    <title>Page 1</title>
    <desc>Created with Sketch.</desc>
    <g id="Page-1" stroke="none" stroke-width="1" fill="none" fill-rule="evenodd">
        <g id="Artboard" transform="translate(-379.000000, -55.000000)">
            <g id="mobile-post-colour" transform="translate(379.000000, 56.000000)">
                <path d="M598.65,102.54 C578.578212,82.1591714 555.818077,64.6138491 531,50.39 L531,474.72 C587.68,414 652.36,372.64 671.57,313.81 C692.7,249.11 658.66,163.43 598.65,102.54 Z" id="Path" fill="#F1F1F1" fill-rule="nonzero"></path>
                <path d="M155,624.73 L155,135.73 C84.65,196.32 13.74,265.72 1.8,346.83 C-10.08,428.69 38,522.45 108.91,593.75 C123.752844,608.743404 139.613951,622.693293 156.38,635.5 C155.461521,631.983748 154.997739,628.36423 155,624.73 Z" id="Path" fill="#F1F1F1" fill-rule="nonzero"></path>
                <path d="M205.07,667.17 C252.95,693.06 301.89,703.9 342.19,689.27 C355.44,684.42 367.75,676.81 379.43,667.17 L205.07,667.17 Z" id="Path" fill="#F1F1F1" fill-rule="nonzero"></path>
                <path d="M531,401.82 L531,170.680927 C471,157.01702 409,149.82 345.49,149.82 C280.27,149.82 216.58,157.382086 155,171.802202 L155,401.793924 L531,401.82 Z" id="Path" fill="#E0E0E0" fill-rule="nonzero"></path>
                <path d="M324.78,402.18 C327.58,385.52 333.78,334 303.37,333.5 C300.37,342.57 294.26,381.42 296.18,402.18 L324.78,402.18 Z" id="Path" fill="#E49D75" fill-rule="nonzero"></path>
                <path d="M189.784825,361.816283 C190.967777,362.989092 191.201687,365.049494 192.721836,365.785786 C194.226025,366.421105 193.411112,367.266037 195.048725,367.421554 C211.794318,369.875862 224.378604,376.501663 241.006271,379.537992 C245.68833,380.400506 250.403556,381.294575 254.825808,383.024862 C257.081157,383.913672 259.24806,385.018111 261.459186,385.948995 C274.17316,391.255559 288.545479,390.913709 302.414766,390.471933 C305.128924,390.387786 307.942581,390.282601 310.391403,389.204459 C312.22111,388.410315 313.896038,386.900915 314.061872,384.997074 C314.349319,381.689017 310.396931,379.737843 307.240549,378.312591 C299.706137,374.930906 293.139093,369.42975 289.170122,362.45601 C288.462562,361.225349 287.887669,359.568692 288.882676,358.527364 C289.628931,357.748998 290.8948,357.743739 292.005891,357.785812 C296.649256,357.957614 301.29262,357.912034 305.935985,357.649072 C308.340584,357.507073 311.524605,356.423672 311.143186,354.167461 C310.977352,353.199763 310.137124,352.479248 309.341118,351.848141 C305.156563,348.50327 300.40817,345.058473 294.941161,345.158399 C292.072225,345.210991 289.335956,346.252319 286.649438,347.13061 C272.177619,351.800807 256.594709,352.05851 241.321357,351.963844 C237.584554,351.963844 233.820112,351.895474 230.160698,351.1697 C227.155011,350.493492 224.210492,349.591329 221.354889,348.471714 C212.090272,345.111066 202.786959,341.72938 194.207791,337.01185 C190.797129,335.139563 186.993992,332.97276 183.190856,333.9352 C181.484564,334.462419 177.88648,337.974648 176.612483,339.176383 C176.147476,339.576121 175.889476,339.99385 175.562424,340.175625 C172.705323,341.7636 174.644118,335.941773 175.799807,341.302607 C177.109899,347.582128 185.285184,357.345937 189.784825,361.816283 Z" id="Path" fill="#E49D75" fill-rule="nonzero" transform="translate(244.076691, 362.198838) scale(-1, 1) rotate(-50.000000) translate(-244.076691, -362.198838) "></path>
                <path d="M344.27,266.5 C374.19,272.91 361.57,335.86 356.51,345.5 C346.57,353.43 310.68,348.79 297.86,333.74 C295.94,326.18 311.89,259.56 344.27,266.5 Z" id="Path" fill="#FFC78E" fill-rule="nonzero"></path>
                <rect id="Rectangle" stroke="#4FE0E0" stroke-width="3" x="154.99" y="0.5" width="376" height="666" rx="42.45"></rect>
                <path d="M410.41,0.31 C410.467062,0.871483083 410.493767,1.43563745 410.490349,2 L410.490349,12 C410.492653,16.3751523 408.75649,20.5720178 405.663728,23.6666558 C402.570965,26.7612939 398.375153,28.500003 394,28.500003 L292,28.500003 C287.622196,28.5026532 283.422787,26.7654367 280.326273,23.6707988 C277.22976,20.576161 275.49,16.3778052 275.49,12 L275.49,2 C275.49,1.49 275.49,1 275.56,0.5" id="Path" fill="#6BD5E1" fill-rule="nonzero"></path>
                <circle id="Oval" fill="#FFD98E" fill-rule="nonzero" cx="342.99" cy="629.42" r="19.22"></circle>
                <circle id="Oval" fill="#FD8369" fill-rule="nonzero" cx="198.82" cy="442.1" r="21.73"></circle>
                <circle id="Oval" fill="#FD8369" fill-rule="nonzero" cx="221.59" cy="520.77" r="12.24"></circle>
                <line x1="240.33" y1="433.06" x2="437.53" y2="433.06" id="Path" stroke="#FD8369" stroke-width="3" stroke-linecap="round"></line>
                <line x1="249.07" y1="520.77" x2="446.27" y2="520.77" id="Path" stroke="#FD8369" stroke-width="3" stroke-linecap="round"></line>
                <line x1="240.33" y1="451.34" x2="305.86" y2="451.34" id="Path" stroke="#FD8369" stroke-width="3" stroke-linecap="round"></line>
                <path d="M451.73,402.18 C454.73,367.75 450.21,250.82 389.4,250.82 C327.09,250.82 307.96,330.33 315.04,402.18 L451.73,402.18 Z" id="Path" fill="#FFD98E" fill-rule="nonzero"></path>
                <path d="M488.05,402.18 C486.25,385.62 475.59,338.83 471.83,331.18 C471.83,331.18 428.46,339.18 428.46,342.06 C428.46,344.59 439.05,388.06 443.46,402.19 L488.05,402.18 Z" id="Path" fill="#E49D75" fill-rule="nonzero"></path>
                <path d="M428,265.33 C457,255.54 478.33,316.09 478.91,326.97 C474.41,338.86 441.2,353.22 422.49,346.84 C417,341.32 396.65,275.91 428,265.33 Z" id="Path" fill="#FFE4AD" fill-rule="nonzero"></path>
                <path d="M408.69,209.93 C407.1,215.38 401.08,246.83 405.39,263.4 C402.33,267.49 371.9,268.51 368.27,263.97 C370.27,256.7 373.6,236.04 372.27,228.77 C370.94,221.5 408.69,209.93 408.69,209.93 Z" id="Path" fill="#D38D6A" fill-rule="nonzero"></path>
                <ellipse id="Oval" fill="#E49D75" fill-rule="nonzero" cx="375.48" cy="197" rx="41.52" ry="47.5"></ellipse>
                <path d="M344.31,180.62 C349.76,180.73 380.64,178.24 384.96,180.17 C389.28,182.1 389.96,190.27 398.58,191.07 C405.04,191.66 410.49,203.07 415.63,209.07 C416.540112,205.111159 417,201.062108 417,197 C417,170.77 398.42,149.5 375.49,149.5 C358.56,149.5 344.01,161.09 337.55,177.71 C339.381973,179.458491 341.780823,180.491132 344.31,180.62 L344.31,180.62 Z" id="Path" fill="#FD8369" fill-rule="nonzero"></path>
                <ellipse id="Oval" fill="#E49D75" fill-rule="nonzero" cx="410.27" cy="199.1" rx="10.62" ry="12.94"></ellipse>
                <rect id="Rectangle" stroke="#4FE0E0" stroke-width="3" x="154.99" y="402.18" width="376" height="189.33"></rect>
            </g>
            <g id="Group-2" transform="translate(536.000000, 232.000000)">
                <rect id="Rectangle" fill="#F2B185" fill-rule="nonzero" x="0" y="55" width="195" height="4"></rect>
                <g id="Group" transform="translate(71.000000, 0.000000)" fill="#FED385">
                    <rect id="Rectangle" x="7" y="0" width="21" height="14" rx="3"></rect>
                    <rect id="Rectangle" x="0" y="11" width="34" height="46" rx="5"></rect>
                </g>
                <g id="Group-3" transform="translate(125.000000, 11.000000)" fill="#ED8A70">
                    <rect id="Rectangle" x="0" y="11" width="24" height="35" rx="4"></rect>
                    <rect id="Rectangle" x="10" y="4" width="4" height="7"></rect>
                    <ellipse id="Oval" cx="12" cy="3" rx="2" ry="3"></ellipse>
                    <rect id="Rectangle" x="4" y="6" width="16" height="6" rx="2"></rect>
                </g>
            </g>
            <g id="Group-4" transform="translate(578.500000, 357.000000) rotate(-12.000000) translate(-578.500000, -357.000000) translate(563.000000, 325.000000)" fill="#74D5DE">
                <rect id="Rectangle" x="0.598089356" y="7.85265325" width="30" height="56" rx="10"></rect>
                <rect id="Rectangle" x="10.8625986" y="0.249828887" width="10" height="11" rx="3"></rect>
            </g>
            <path d="M591.477021,377.371088 C591.86336,376.734832 593.489146,376.587463 594.600237,376.629537 C599.243601,376.801338 603.886966,376.755758 608.53033,376.492797 C610.93493,376.350797 614.118951,375.267396 613.737532,373.011186 C613.571697,372.043487 612.731469,371.322973 611.935464,370.691865 C607.750908,367.346994 603.002515,363.902198 597.535506,364.002123 C594.66657,364.054715 591.930302,365.096043 589.243784,365.974335 C588.133617,366.332597 587.016911,366.664892 585.894307,366.973053 C572.382983,370.681996 591.090683,378.007345 591.477021,377.371088 Z" id="Path" fill="#E49D75" fill-rule="nonzero" transform="translate(597.384417, 370.704998) scale(-1, 1) rotate(-50.000000) translate(-597.384417, -370.704998) "></path>
        </g>
    </g>
</svg>
