<?xml version="1.0" encoding="UTF-8"?>
<svg width="1177px" height="496px" viewBox="0 0 1177 496" version="1.1" xmlns="http://www.w3.org/2000/svg" xmlns:xlink="http://www.w3.org/1999/xlink">
    <!-- Generator: Sketch 64 (93537) - https://sketch.com -->
    <title>Page 1</title>
    <desc>Created with Sketch.</desc>
    <defs>
        <linearGradient x1="50%" y1="62%" x2="50%" y2="38%" id="linearGradient-1">
            <stop stop-color="#808080" stop-opacity="0.25" offset="0%"></stop>
            <stop stop-color="#808080" stop-opacity="0.12" offset="54%"></stop>
            <stop stop-color="#808080" stop-opacity="0.1" offset="100%"></stop>
        </linearGradient>
    </defs>
    <g id="Page-1" stroke="none" stroke-width="1" fill="none" fill-rule="evenodd">
        <g id="Artboard" transform="translate(-81.000000, -437.000000)">
            <g id="undraw_online_friends_x73e" transform="translate(69.000000, 235.000000)">
                <ellipse id="Oval" fill="#3F3D56" fill-rule="nonzero" cx="600.5" cy="676.25" rx="588.5" ry="21"></ellipse>
                <path d="M1059.5,558.82 C1061.68487,555.004807 1062.8136,550.6763 1062.77,546.28 C1062.77,534.95 1055.77,525.76 1047.09,525.76 C1038.41,525.76 1031.42,534.95 1031.42,546.28 C1031.3764,550.6763 1032.50513,555.004807 1034.69,558.82 C1030.33008,566.611552 1030.33008,576.108448 1034.69,583.9 C1030.32992,591.68795 1030.32992,601.18205 1034.69,608.97 C1030.33008,616.761552 1030.33008,626.258448 1034.69,634.05 C1032.50513,637.865193 1031.3764,642.1937 1031.42,646.59 C1031.42,657.92 1038.42,667.11 1047.09,667.11 C1055.76,667.11 1062.77,657.92 1062.77,646.59 C1062.8136,642.1937 1061.68487,637.865193 1059.5,634.05 C1063.85992,626.258448 1063.85992,616.761552 1059.5,608.97 C1063.86008,601.18205 1063.86008,591.68795 1059.5,583.9 C1063.85992,576.108448 1063.85992,566.611552 1059.5,558.82 L1059.5,558.82 Z" id="Path" fill="#3F3D56" fill-rule="nonzero"></path>
                <ellipse id="Oval" fill="#3F3D56" fill-rule="nonzero" cx="1047.05" cy="521.2" rx="15.67" ry="20.52"></ellipse>
                <ellipse id="Oval" fill="#3F3D56" fill-rule="nonzero" cx="1047.05" cy="496.12" rx="15.67" ry="20.52"></ellipse>
                <path d="M988.38,324.5 C986.238288,321.774243 984.286997,318.904108 982.54,315.91 L1023.73,309.15 L979.18,309.48 C970.546297,290.689582 970.029102,269.173544 977.75,249.99 L1037.51,280.99 L982.4,240.48 C996.456165,216.134899 1022.93466,201.681622 1051.014,203.027071 C1079.09334,204.37252 1104.06862,221.291253 1115.73269,246.868765 C1127.39677,272.446276 1123.79523,302.396848 1106.4,324.48 C1109.74414,328.721021 1112.61453,333.314987 1114.96,338.18 L1061.5,365.97 L1118.5,346.84 C1126.62938,370.877042 1122.07456,397.393553 1106.39,417.34 C1130.61144,448.117042 1127.1063,492.342425 1098.33917,518.919791 C1069.57203,545.497157 1025.20797,545.497157 996.440834,518.919791 C967.673703,492.342425 964.168564,448.117042 988.39,417.34 C966.963445,390.102111 966.963445,351.737889 988.39,324.5 L988.38,324.5 Z" id="Path" fill="#57B894" fill-rule="nonzero"></path>
                <path d="M1122.5,370.92 C1122.52572,387.761854 1116.86314,404.118867 1106.43,417.34 C1130.65144,448.117042 1127.1463,492.342425 1098.37917,518.919791 C1069.61203,545.497157 1025.24797,545.497157 996.480834,518.919791 C967.713703,492.342425 964.208564,448.117042 988.43,417.34 C978.32,404.57 1122.5,362.5 1122.5,370.92 Z" id="Path" fill="#000000" fill-rule="nonzero" opacity="0.1"></path>
                <rect id="Rectangle" fill="#F2F2F2" fill-rule="nonzero" x="183.5" y="210" width="834" height="456" rx="20.42"></rect>
                <path d="M184,232.5 L452,232.5 L452,666.5 L204.42,666.5 C193.142345,666.5 184,657.357655 184,646.08 L184,232.5 Z" id="Path" fill="#6C63FF" fill-rule="nonzero"></path>
                <path d="M1017.5,230.42 L1017.5,242.009998 L183.5,242.009998 L183.5,230.42 C183.5,225.005198 185.651705,219.812319 189.481486,215.984414 C193.311266,212.156509 198.505199,210.007347 203.92,210.009998 L997.08,210.009998 C1002.4948,210.007347 1007.68873,212.156509 1011.51851,215.984414 C1015.34829,219.812319 1017.5,225.005198 1017.5,230.42 Z" id="Path" fill="#3F3D56" fill-rule="nonzero"></path>
                <circle id="Oval" fill="#6C63FF" fill-rule="nonzero" cx="205" cy="226.5" r="6"></circle>
                <circle id="Oval" fill="#6C63FF" fill-rule="nonzero" cx="220" cy="226.5" r="6"></circle>
                <circle id="Oval" fill="#6C63FF" fill-rule="nonzero" cx="235" cy="226.5" r="6"></circle>
                <g id="Group" transform="translate(0.500000, 0.130000)"></g>
                <g id="Group" transform="translate(0.500000, 0.130000)"></g>
                <rect id="Rectangle" fill="#6C63FF" fill-rule="nonzero" opacity="0.3" x="622.5" y="296.12" width="347" height="11" rx="1.24"></rect>
                <rect id="Rectangle" fill="#6C63FF" fill-rule="nonzero" x="891.5" y="317.12" width="73" height="25" rx="1.24"></rect>
                <rect id="Rectangle" fill="#6C63FF" fill-rule="nonzero" opacity="0.3" x="622.5" y="429.88" width="347" height="11" rx="1.24"></rect>
                <rect id="Rectangle" fill="#6C63FF" fill-rule="nonzero" x="891.5" y="450.88" width="73" height="25" rx="1.24"></rect>
                <rect id="Rectangle" fill="#6C63FF" fill-rule="nonzero" opacity="0.3" x="622.5" y="565.88" width="347" height="11" rx="1.24"></rect>
                <rect id="Rectangle" fill="#6C63FF" fill-rule="nonzero" x="891.5" y="586.88" width="73" height="25" rx="1.24"></rect>
                <path d="M536.63,635.86 C536.63,636.07 536.63,636.29 536.63,636.52 C536.63,636.75 536.63,636.96 536.63,637.18 C536.626171,637.206529 536.626171,637.233471 536.63,637.26 L536.63,637.26 L535.7,637.05 C535.684772,636.873662 535.684772,636.696338 535.7,636.52 C535.697819,634.643477 536.511716,632.858744 537.93,631.63 C538.021598,631.533081 538.125875,631.448987 538.24,631.38 C538.776861,630.943905 539.386106,630.605436 540.04,630.38 C540.64005,630.148378 541.276831,630.026441 541.92,630.02 C542.006383,630.010085 542.093617,630.010085 542.18,630.02 C542.339838,630.009804 542.500162,630.009804 542.66,630.02 L542.33,630.02 C540.798773,630.181334 539.377803,630.891819 538.33,632.02 C538.213444,632.127947 538.109451,632.248712 538.02,632.38 C537.219836,633.375335 536.735747,634.587298 536.63,635.86 Z" id="Path" fill="#000000" fill-rule="nonzero" opacity="0.05"></path>
                <path d="M563.89,635.49 C563.61,635.61 563.31,635.71 563.02,635.81 L563.02,635.81 C562.876764,634.377577 562.248798,633.036976 561.24,632.01 L560.94,631.71 C559.941142,630.813796 558.691798,630.24496 557.36,630.08 L557.03,630.08 C557.183178,630.070248 557.336822,630.070248 557.49,630.08 C557.579744,630.070406 557.670256,630.070406 557.76,630.08 C558.405512,630.095235 559.044088,630.216868 559.65,630.44 C560.13113,630.605122 560.591002,630.826666 561.02,631.1 C561.131093,631.156864 561.232373,631.231136 561.32,631.32 C562.698222,632.311899 563.623372,633.813018 563.89,635.49 Z" id="Path" fill="#000000" fill-rule="nonzero" opacity="0.05"></path>
                <polygon id="Path" fill="url(#linearGradient-1)" fill-rule="nonzero" points="337.93 660.56 337.93 660.56 337.49 660.8"></polygon>
                <path d="M276.5,606.55 C272.64,617.67 277.15,635.72 279.24,643.77 C280.625438,649.593947 281.541707,655.519598 281.98,661.49 C286.6837,662.290271 291.497189,662.181645 296.16,661.17 L292.78,644.58 C295.19,634.75 292.78,608.49 292.78,608.49 C292.78,608.49 298.25,598.34 298.78,582.87 C299.25,567.65 303,562.73 303.12,562.57 L303.12,562.57 C310.85,566.57 320.68,609.78 320.68,609.78 C319.87,620.25 320.84,636.36 324.06,645.06 C326.013159,650.586591 326.836108,656.449254 326.48,662.3 C327.745957,663.209265 329.347476,663.516406 330.86,663.14 C335.46,662.4 340.98,658.43 340.98,658.43 C340.98,658.43 339.21,611.43 337.92,609.62 C336.63,607.81 337.92,597.7 337.92,597.7 L335.82,581.26 C335.82,581.26 336.14,553.39 333.08,548.56 C330.44,544.38 329.83,537.05 329.71,535.12 C329.71,534.82 329.71,534.65 329.71,534.65 L325.05,529.06 C325.05,529.06 279.94,525.68 276.55,529.06 C275.72,529.89 275.21,531.78 274.9,534.16 C273.97,541.47 275.04,553.39 275.04,553.39 C275.04,553.39 276.39,562.25 278.33,571.27 C279.489922,576.688621 279.489922,582.291379 278.33,587.71 C278.946463,594.049252 278.324939,600.447891 276.5,606.55 Z" id="Path" fill="#575A89" fill-rule="nonzero"></path>
                <path d="M279.28,677.2 C281.28,679.86 293.14,678.73 295.15,677.9 C296.38,677.4 296.29,675.08 295.96,672.7 C295.75,671.18 295.44,669.63 295.31,668.5 C294.99,665.6 296.31,659.72 296.31,659.72 C296.31,659.72 293.65,662.54 293.01,659.72 C292.704641,658.624411 291.820364,657.786271 290.71,657.54 C289.330666,657.121786 287.846876,657.214079 286.53,657.8 C284.43,658.7 280.94,660.64 281.53,663.26 C282.41,666.96 279.27,672.26 279.27,672.26 C278.099999,673.721331 278.099999,675.798669 279.27,677.26 L279.28,677.2 Z" id="Path" fill="#CBCEDA" fill-rule="nonzero"></path>
                <path d="M279.28,677.2 C281.28,679.86 293.14,678.73 295.15,677.9 C296.38,677.4 296.29,675.08 295.96,672.7 C294.69,673.29 292.52,673.79 288.96,673.45 C288.118985,673.373413 287.274173,673.3467 286.43,673.37 C283.86619,673.49154 281.29712,673.441428 278.74,673.22 C278.15653,674.542556 278.365226,676.080724 279.28,677.2 L279.28,677.2 Z" id="Path" fill="#000000" fill-rule="nonzero" opacity="0.1"></path>
                <path d="M320.61,609.78 C319.8,620.25 320.77,636.36 323.99,645.06 C325.943159,650.586591 326.766108,656.449254 326.41,662.3 C327.675957,663.209265 329.277476,663.516406 330.79,663.14 C329.79,656.35 325.68,627.07 323.02,603.94 C321.095356,587.919894 315.200331,572.634079 305.87,559.47 L303.05,562.57 C310.78,566.6 320.61,609.78 320.61,609.78 Z" id="Path" fill="#000000" fill-rule="nonzero" opacity="0.1"></path>
                <path d="M284.12,440.45 L286.12,450.12 L295.76,466.31 L307.64,461.24 C307.64,461.24 323.79,444.32 313.64,441.9 C312.423028,441.644569 311.274288,441.13326 310.27,440.4 C308.50489,438.994169 307.525734,436.823645 307.64,434.57 C307.718512,432.172564 308.279698,429.815581 309.29,427.64 L288.5,421.13 C289.350485,423.862425 289.851143,426.691646 289.99,429.55 C290.15,435.21 288.04,438 286.32,439.33 C285.668135,439.845438 284.920309,440.22615 284.12,440.45 Z" id="Path" fill="#FBBEBE" fill-rule="nonzero"></path>
                <path d="M288.5,421.13 C289.350485,423.862425 289.851143,426.691646 289.99,429.55 C290.364562,430.002974 290.768784,430.430581 291.2,430.83 C294.239953,433.745617 298.287861,435.375527 302.5,435.380033 C304.225761,435.383496 305.940901,435.110019 307.58,434.57 C307.658512,432.172564 308.219698,429.815581 309.23,427.64 L288.5,421.13 Z" id="Path" fill="#000000" fill-rule="nonzero" opacity="0.1"></path>
                <path d="M286.079803,418.46 C286.075959,425.112087 290.081037,431.111038 296.226379,433.657614 C302.371722,436.204189 309.446066,434.796452 314.148371,430.091284 C318.850675,425.386116 320.254105,418.310915 317.703788,412.167125 C315.153472,406.023334 309.152083,402.021909 302.5,402.029849 C298.137695,402.011271 293.948793,403.736591 290.865089,406.822173 C287.781384,409.907756 286.058615,414.097707 286.079803,418.46 Z" id="Path" fill="#FBBEBE" fill-rule="nonzero"></path>
                <path d="M284.12,440.45 L286.12,450.12 L295.76,466.31 L307.64,461.24 C307.64,461.24 323.79,444.32 313.64,441.9 C312.423028,441.644569 311.274288,441.13326 310.27,440.4 C312.1,445.4 304.54,455.92 304.54,455.92 C303.66,457.21 301.64,456.4 301.64,456.4 C296.76,455.66 287.79,441.65 286.33,439.32 C285.675995,439.840174 284.924608,440.224368 284.12,440.45 Z" id="Path" fill="#000000" fill-rule="nonzero" opacity="0.1"></path>
                <path d="M274.81,534.13 C277.67,534.78 293.5,538.29 299.5,537.41 C306.11,536.41 318.95,535.8 318.95,535.8 C318.95,535.8 327.13,536.24 329.64,535.09 C329.64,534.79 329.64,534.62 329.64,534.62 L324.98,529.03 C324.98,529.03 279.87,525.65 276.48,529.03 C275.63,529.89 275.12,531.78 274.81,534.13 Z" id="Path" fill="#000000" fill-rule="nonzero" opacity="0.1"></path>
                <path d="M304.5,456.4 C304.5,456.4 313,444.63 309.79,440.04 L324.15,445.93 C324.15,445.93 332.79,444.88 335.91,457.78 C336.409337,459.925179 336.591274,462.132007 336.45,464.33 C336.364506,467.743828 337.178398,471.120099 338.81,474.12 C342.36,481.21 341.55,497.48 334.3,499.12 C327.05,500.76 324.47,499.92 324.47,499.92 C324.47,499.92 325.47,529.4 329.63,532.79 C333.79,536.18 318.95,535.37 318.95,535.37 C318.95,535.37 306.11,536.01 299.5,536.98 C292.89,537.95 274.37,533.59 274.37,533.59 C274.37,533.59 277.11,521.19 278.07,513.29 C279.03,505.39 281.3,488.59 281.3,488.59 L264.86,466.33 C264.86,466.33 261.96,452.88 272.11,446.92 C282.26,440.96 286.11,439.49 286.11,439.49 C286.11,439.49 296.31,456.1 301.63,456.91 C301.6,456.89 303.62,457.7 304.5,456.4 Z" id="Path" fill="#3F3D56" fill-rule="nonzero"></path>
                <path d="M323.35,461.07 C323.35,461.07 323.51,466.39 322.54,468.49 C321.57,470.59 318.03,482.18 318.03,482.18 L326.08,482.18 C326.08,482.18 321.73,477.51 322.08,475.25 C322.43,472.99 323.35,461.07 323.35,461.07 Z" id="Path" fill="#000000" fill-rule="nonzero" opacity="0.1"></path>
                <path d="M299.5,501.19 C299.5,501.19 317.29,496.84 318.95,493.13 C320.61,489.42 325.18,481.13 325.18,481.13 L323.3,478.6 L314.65,485.39 C314.65,485.39 304.34,493.61 299.5,494.39 C294.66,495.17 299.5,501.19 299.5,501.19 Z" id="Path" fill="#FBBEBE" fill-rule="nonzero"></path>
                <path d="M299.5,501.19 C299.5,501.19 317.29,496.84 318.95,493.13 C320.61,489.42 325.18,481.13 325.18,481.13 L323.3,478.6 L314.65,485.39 C314.65,485.39 304.34,493.61 299.5,494.39 C294.66,495.17 299.5,501.19 299.5,501.19 Z" id="Path" fill="#000000" fill-rule="nonzero" opacity="0.05"></path>
                <path d="M284.12,480.25 L284.12,489.9 L285.67,489.9 C293.333045,489.89962 300.869931,491.85095 307.57,495.57 L310.48,497.18 L311.26,497.62 L316.26,486.37 L311.59,482.18 L311.35,482.18 C310.2,482.29 305.26,482.71 303.17,482 C301.08,481.29 298.71,479.18 292.84,480.68 C289.96,481.42 287.49,484.68 284.69,483.68 L284.12,480.25 Z" id="Path" fill="#FBBEBE" fill-rule="nonzero"></path>
                <path d="M268.57,462.69 L265.35,466.31 L265.35,475.13 C265.35,475.13 268.09,502.84 276.79,505.9 C285.49,508.96 301.02,504.13 301.02,504.13 C301.02,504.13 305.02,493.5 303.15,492.85 C301.28,492.2 286.57,488.32 286.57,488.32 C286.57,488.32 286.77,472.07 283.57,467.24 C283.57,467.24 285.67,452.09 278.42,451.77 C271.17,451.45 268.57,462.69 268.57,462.69 Z" id="Path" fill="#000000" fill-rule="nonzero" opacity="0.1"></path>
                <path d="M268.09,462.69 L264.86,466.31 L264.86,475.13 C264.86,475.13 267.6,502.84 276.3,505.9 C285,508.96 300.5,504.13 300.5,504.13 C300.5,504.13 304.5,493.5 302.64,492.85 C300.78,492.2 286.05,488.32 286.05,488.32 C286.05,488.32 286.26,472.07 283.05,467.24 C283.05,467.24 285.14,452.09 277.89,451.77 C270.64,451.45 268.09,462.69 268.09,462.69 Z" id="Path" fill="#3F3D56" fill-rule="nonzero"></path>
                <path d="M290.59,425.44 C290.449197,424.382145 290.576425,423.305868 290.96,422.31 C291.378417,421.302401 292.417092,420.697189 293.5,420.83 C294.88,421.15 295.5,422.95 296.83,423.38 C298.03675,423.621903 299.249882,422.994564 299.75,421.87 C300.212222,420.760921 300.404165,419.557847 300.31,418.36 C300.31,417.02 300.31,415.67 300.31,414.36 C300.31,413.05 300.36,411.31 301.26,410.16 C302.39,408.73 305.03,408.1 306.79,408.16 C307.962967,408.169026 309.088785,408.622928 309.94,409.43 C310.812614,410.303048 312.032128,410.73649 313.26,410.61 C314.353133,410.443945 315.254696,409.666736 315.58,408.61 C315.575277,408.593668 315.575277,408.576332 315.58,408.56 C311.842832,403.635955 305.658126,401.226284 299.574746,402.32407 C293.491366,403.421855 288.539015,407.841282 286.758675,413.760997 C284.978335,419.680712 286.671355,426.098718 291.14,430.37 C290.860292,428.738854 290.676643,427.092685 290.59,425.44 Z" id="Path" fill="#000000" fill-rule="nonzero" opacity="0.1"></path>
                <path d="M313.28,410.13 C314.371051,409.959431 315.270538,409.184011 315.6,408.13 C315.73,407.61 315.7,407.05 315.85,406.54 C316.23,405.27 317.58,404.61 318.48,403.65 C320.3,401.72 320.18,398.55 318.89,396.24 C317.89,394.37 315.89,392.8 313.74,393.16 C312.44,393.39 311.31,394.32 309.99,394.4 C308.716751,394.31132 307.484404,393.913124 306.4,393.24 C303.605458,391.974126 300.463671,391.695561 297.49,392.45 C296.575494,392.632059 295.728236,393.060875 295.04,393.69 C294.5729,394.275295 294.138889,394.886249 293.74,395.52 C292.23,397.44 289.54,397.81 287.15,398.24 C284.76,398.67 282.05,399.62 281.26,401.93 C280.74,403.45 281.26,405.11 281.54,406.7 C281.646961,407.028955 281.625526,407.386194 281.48,407.7 C281.11,408.32 280.17,408.06 279.48,408.21 C278.13,408.49 277.78,410.21 277.73,411.63 C277.67,413.22 277.63,414.81 277.6,416.4 C277.427584,417.898978 277.990029,419.388898 279.11,420.4 L284.43,426.79 C286.79,429.63 289.29,432.93 288.82,436.59 C289.93,437.09 291.26,436.12 291.63,434.95 C291.879625,433.744378 291.817673,432.495012 291.45,431.32 C291.019725,429.246156 290.739002,427.144078 290.61,425.03 C290.469197,423.972145 290.596425,422.895868 290.98,421.9 C291.39668,420.886051 292.4429,420.278833 293.53,420.42 C294.91,420.74 295.53,422.53 296.86,422.97 C298.066197,423.207995 299.277012,422.581854 299.78,421.46 C300.242222,420.350921 300.434165,419.147847 300.34,417.95 L300.34,413.95 C300.34,412.49 300.39,410.95 301.29,409.75 C302.42,408.32 305.06,407.7 306.82,407.75 C307.991019,407.768757 309.113439,408.221289 309.97,409.02 C310.850565,409.868448 312.065942,410.276022 313.28,410.13 L313.28,410.13 Z" id="Path" fill="#3F3D56" fill-rule="nonzero"></path>
                <path d="M309.57,460.67 L304.57,481.4 C304.57,481.4 300.55,481.37 309.57,460.67 Z" id="Path" fill="#000000" fill-rule="nonzero" opacity="0.1"></path>
                <path d="M292.33,457.21 C292.33,457.21 298.94,468.03 296.33,479.21 L295.1,479.3 C295.1,479.3 297.33,474.13 292.33,457.21 Z" id="Path" fill="#000000" fill-rule="nonzero" opacity="0.1"></path>
                <path d="M288.14,518.43 C288.14,518.43 280.03,515.75 279.44,521.97 C279.44,521.97 280.97,517.7 288.14,518.43 Z" id="Path" fill="#000000" fill-rule="nonzero" opacity="0.1"></path>
                <path d="M311.59,482.66 C311.59,482.66 313.2,493.94 310.3,498.45 C314.850983,500.059955 319.68441,500.716893 324.5,500.38 L325.5,482.66 L311.59,482.66 Z" id="Path" fill="#000000" fill-rule="nonzero" opacity="0.1"></path>
                <path d="M310.5,497.18 L311.28,497.62 L316.28,486.37 L311.61,482.18 L311.36,482.18 L311.36,482.18 C311.42,482.72 312.72,492.41 310.5,497.18 Z" id="Path" fill="#000000" fill-rule="nonzero" opacity="0.1"></path>
                <path d="M311.59,482.18 C311.59,482.18 313.2,493.46 310.3,497.97 C314.852455,499.573869 319.684616,500.230634 324.5,499.9 L330.14,482.18 L311.59,482.18 Z" id="Path" fill="#3F3D56" fill-rule="nonzero"></path>
                <path d="M325.5,670.34 C325.690936,671.994057 326.979866,673.307695 328.63,673.53 C333,674.19 343.54,675.85 346.2,677.12 C349.59,678.73 362.96,677.6 363.6,675.99 C363.783367,675.341704 363.700584,674.647047 363.37,674.06 C362.91471,673.074325 362.158426,672.258519 361.21,671.73 C360.889276,671.558959 360.55477,671.415121 360.21,671.3 C357.69,670.46 352.94,668.68 351.65,666.81 C351.65,666.81 345.72,661.62 344.03,658.81 C343.384229,657.688939 342.220976,656.964721 340.93,656.88 C339.52,656.82 337.93,657.53 337.31,660.62 C337.31,660.62 329.58,665.03 327.49,661.16 C327.49,661.16 327.16,667.1 325.88,668.73 L325.88,668.73 C325.545722,669.195441 325.409118,669.774211 325.5,670.34 Z" id="Path" fill="#CBCEDA" fill-rule="nonzero"></path>
                <path d="M325.5,670.34 C325.690936,671.994057 326.979866,673.307695 328.63,673.53 C333,674.19 343.54,675.85 346.2,677.12 C349.59,678.73 362.96,677.6 363.6,675.99 C363.783367,675.341704 363.700584,674.647047 363.37,674.06 C362.91471,673.074325 362.158426,672.258519 361.21,671.73 C359.03,673.18 354.21,674.6 343.55,672.93 C333.39,671.35 328.36,669.79 325.91,668.74 L325.91,668.74 C325.567768,669.198437 325.420415,669.773472 325.5,670.34 Z" id="Path" fill="#000000" fill-rule="nonzero" opacity="0.1"></path>
                <g id="Group" opacity="0.1" transform="translate(277.000000, 399.000000)" fill="#000000" fill-rule="nonzero">
                    <path d="M4.56,7.89 C4.56,7.89 4.56,7.84 4.56,7.82 C4.25055612,6.62405037 4.08604195,5.39523022 4.07,4.16 C4.14760703,5.15840749 4.29125474,6.15057886 4.5,7.13 C4.57372972,7.3762006 4.59418336,7.63527994 4.56,7.89 Z" id="Path"></path>
                    <path d="M13.96,22.97 C13.7072087,23.554652 13.5713198,24.183138 13.56,24.82 C13.4886497,23.9437708 13.6257197,23.063096 13.96,22.25 C14.3794303,21.2384542 15.4236223,20.6324134 16.51,20.77 C17.89,21.09 18.51,22.89 19.84,23.32 C21.04675,23.5619034 22.2598823,22.9345645 22.76,21.81 C23.2229648,20.7011318 23.4149369,19.4978781 23.32,18.3 C23.32,16.96 23.32,15.61 23.32,14.3 C23.32,12.99 23.37,11.25 24.27,10.1 C25.4,8.67 28.04,8.04 29.8,8.1 C30.9729666,8.1090261 32.0987854,8.56292764 32.95,9.37 C33.8226141,10.2430483 35.0421283,10.6764901 36.27,10.55 C37.3641849,10.3862357 38.2668061,9.60811393 38.59,8.55 C38.72,8.03 38.69,7.47 38.84,6.96 C39.22,5.69 40.57,5.03 41.47,4.07 C42.3205923,3.13905854 42.8039176,1.93074543 42.83,0.67 C42.9680272,2.17558571 42.475589,3.67100462 41.47,4.8 C40.57,5.8 39.22,6.42 38.84,7.68 C38.69,8.2 38.72,8.75 38.59,9.27 C38.2646958,10.326736 37.363133,11.1039454 36.27,11.27 C35.0400153,11.3983202 33.8184059,10.9604542 32.95,10.08 C32.0960755,9.27715585 30.971986,8.82395153 29.8,8.81 C28.04,8.75 25.4,9.38 24.27,10.81 C23.37,11.96 23.33,13.55 23.32,15.01 C23.31,16.47 23.32,17.7 23.32,19.01 C23.4141033,20.2045906 23.2221327,21.4044071 22.76,22.51 C22.2657367,23.6400674 21.0478567,24.2698615 19.84,24.02 C18.49,23.59 17.89,21.8 16.51,21.48 C15.4195931,21.336648 14.370454,21.9496743 13.96,22.97 Z" id="Path"></path>
                    <path d="M0.72,18.54 C1.01650992,19.3676078 1.48321228,20.12387 2.09,20.76 L7.41,27.15 C9.65,29.84 12.02,32.95 11.84,36.39 C11.68,33.24 9.49,30.39 7.41,27.87 L2.09,21.48 C0.970029365,20.4688981 0.407584411,18.9789777 0.58,17.48 C0.579850649,17.8379524 0.626923404,18.1943604 0.72,18.54 Z" id="Path"></path>
                    <path d="M14.61,35.31 C14.6979325,35.0274418 14.7516497,34.7353549 14.77,34.44 C14.8126065,34.9753081 14.7584073,35.5139134 14.61,36.03 C14.24,37.2 12.92,38.17 11.8,37.66 C11.8315783,37.4279718 11.8482791,37.1941609 11.85,36.96 C13.0663769,37.2570466 14.2958071,36.5220611 14.61,35.31 L14.61,35.31 Z" id="Path"></path>
                </g>
                <path d="M345.14,660.28 C345.14,660.28 343.46,663.28 337.36,660.63" id="Path" fill="#000000" fill-rule="nonzero" opacity="0.1"></path>
                <path d="M293.55,660.99 C293.55,660.99 288.29,667.19 281.66,662.99" id="Path" fill="#000000" fill-rule="nonzero" opacity="0.1"></path>
                <path d="M278.24,587.71 C278.24,587.71 281.95,590.03 282.08,591.36 C282.21,592.69 280.16,590.36 280.16,590.36 L278.24,587.71 Z" id="Path" fill="#000000" fill-rule="nonzero" opacity="0.1"></path>
                <path d="M276.77,605.52 C278.061503,606.598657 279.669346,607.22705 281.35,607.31 C284.13,607.43 283.9,611.05 282.08,609.97 C280.19962,608.62359 278.424489,607.135956 276.77,605.52 Z" id="Path" fill="#000000" fill-rule="nonzero" opacity="0.1"></path>
                <path d="M276.06,607.84 C276.06,607.84 277.85,616.61 279.3,614.92" id="Path" fill="#000000" fill-rule="nonzero" opacity="0.1"></path>
                <path d="M95.29,662.76 C98.29,657.25 94.88,650.5 91,645.59 C87.12,640.68 82.39,635.59 82.49,629.3 C82.64,620.3 92.19,614.98 99.82,610.21 C105.485553,606.67341 110.709107,602.473753 115.38,597.7 C117.334431,595.861801 118.952158,593.695808 120.16,591.3 C121.74,587.78 121.69,583.78 121.59,579.93 C121.256667,567.083333 120.623333,554.253333 119.69,541.44" id="Path" stroke="#3F3D56" stroke-width="4"></path>
                <path d="M134.2,540.74 C133.983914,535.962714 131.344297,531.626201 127.2,529.24 L124.06,535.45 L124.15,527.93 C118.30965,526.223784 112.035927,528.485166 108.627285,533.525208 C105.218643,538.565249 105.455595,545.229881 109.213561,550.015123 C112.971526,554.800366 119.390007,556.610495 125.094439,554.493821 C130.798872,552.377147 134.483054,546.818347 134.21,540.74 L134.2,540.74 Z" id="Path" fill="#57B894" fill-rule="nonzero"></path>
                <path d="M109.17,635.73 C106.135933,641.610638 99.3988719,644.563899 93.018252,642.810287 C86.6376322,641.056675 82.3561567,635.075144 82.7536414,628.469883 C83.1511261,621.864622 88.1190084,616.439689 94.6638757,615.463894 C101.208743,614.488099 107.543033,618.227955 109.85,624.43 L101.08,631.56 L110.73,629.33 C110.726441,631.557046 110.191638,633.751111 109.17,635.73 L109.17,635.73 Z" id="Path" fill="#57B894" fill-rule="nonzero"></path>
                <path d="M102.24,608.48 C95.0122152,608.990531 88.5891796,603.901733 87.4329637,596.748784 C86.2767478,589.595835 90.7694506,582.742596 97.79,580.95 L97.71,586.73 L100.89,580.44 L100.89,580.44 C104.609097,580.25811 108.247439,581.565278 111.000428,584.072431 C113.753417,586.579584 115.394226,590.08015 115.56,593.8 C115.642156,595.419487 115.439067,597.040812 114.96,598.59 C113.232017,604.240694 108.142269,608.198054 102.24,608.48 L102.24,608.48 Z" id="Path" fill="#57B894" fill-rule="nonzero"></path>
                <path d="M136.31,585.81 C130.403312,586.03106 124.994176,582.518649 122.793197,577.032893 C120.592218,571.547136 122.073664,565.270107 126.495158,561.347324 C130.916653,557.424542 137.325451,556.70129 142.51,559.54 L140.03,566.34 L145.14,561.44 C147.873046,563.94309 149.502088,567.42773 149.67,571.13 C149.73658,572.430054 149.618743,573.732986 149.32,575 C147.881151,581.102598 142.572899,585.513221 136.31,585.81 Z" id="Path" fill="#57B894" fill-rule="nonzero"></path>
                <path d="M132.31,544.48 C129.07,544.83 125.92,545.84 122.67,546.04 C119.42,546.24 115.85,545.46 113.79,542.94 C112.69,541.58 112.13,539.85 111.2,538.37 C110.311794,536.985781 109.095885,535.842002 107.66,535.04 C105.349785,539.869131 105.995643,545.592905 109.323885,549.785804 C112.652128,553.978703 118.080015,555.906596 123.307413,554.752514 C128.534811,553.598433 132.646461,549.564444 133.9,544.36 C133.373333,544.38 132.843333,544.42 132.31,544.48 Z" id="Path" fill="#000000" fill-rule="nonzero" opacity="0.1"></path>
                <path d="M136.31,585.81 C131.385996,586.05984 126.693564,583.701217 123.95634,579.600506 C121.219115,575.499795 120.840664,570.261589 122.96,565.81 C124.073601,566.558692 125.031308,567.516399 125.78,568.63 C126.78,570.14 127.39,571.89 128.56,573.27 C130.75,575.84 134.48,576.68 137.87,576.53 C141.26,576.38 144.53,575.41 147.87,575.1 C148.34,575.1 148.81,575.03 149.29,575.02 C147.846616,581.104437 142.555739,585.502631 136.31,585.81 Z" id="Path" fill="#000000" fill-rule="nonzero" opacity="0.1"></path>
                <path d="M102.24,608.48 C97.3616064,608.730573 92.7053475,606.420292 89.9539262,602.384057 C87.202505,598.347822 86.7538126,593.169326 88.77,588.72 C89.9360471,589.478325 90.9529132,590.444348 91.77,591.57 C92.86,593.11 93.54,594.88 94.82,596.3 C97.19,598.94 101.17,599.87 104.75,599.78 C108.33,599.69 111.58,598.86 115.03,598.59 C113.293393,604.264029 108.168438,608.226954 102.24,608.48 L102.24,608.48 Z" id="Path" fill="#000000" fill-rule="nonzero" opacity="0.1"></path>
                <path d="M109.17,635.73 C106.00817,642.796483 97.7164834,645.96183 90.6500002,642.8 C83.5835169,639.638169 80.4181701,631.346483 83.58,624.28 C84.7407416,625.03444 85.7793937,625.961808 86.66,627.03 C88,628.65 88.88,630.5 90.42,632.03 C93.29,634.85 97.92,636.03 102.05,636.12 C104.428966,636.131269 106.806497,636.001039 109.17,635.73 Z" id="Path" fill="#000000" fill-rule="nonzero" opacity="0.1"></path>
                <path d="M74.12,656.42 C74.12,656.42 85.2,656.13 88.5,653.7 C91.8,651.27 105.5,648.49 106.36,652.3 C107.22,656.11 123.01,671.3 110.5,671.36 C97.99,671.42 81.45,669.36 78.11,667.36 C74.77,665.36 74.12,656.42 74.12,656.42 Z" id="Path" fill="#656380" fill-rule="nonzero"></path>
                <path d="M110.77,670.03 C98.26,670.14 81.71,668.09 78.38,666.03 C75.84,664.48 74.83,658.93 74.49,656.38 L74.12,656.38 C74.12,656.38 74.82,665.31 78.12,667.38 C81.42,669.45 98.01,671.46 110.51,671.38 C114.12,671.38 115.37,670.07 115.3,668.17 C114.83,669.3 113.5,670.01 110.77,670.03 Z" id="Path" fill="#000000" fill-rule="nonzero" opacity="0.2"></path>
            </g>
            <g id="storefront-colour" transform="translate(563.000000, 506.000000)">
                <path d="M21.4614937,1.24828214 C9.7991088,4.6397386 -0.758883562,15.6989799 0.0429053976,26.5129757 C0.815980152,37.3247622 12.9841768,47.8868844 20.7094024,60.7313353 C28.4092269,73.6011946 31.6947946,88.7544872 40.6481047,94.7751509 C49.5760137,100.79471 64.1473684,97.6562318 75.910253,91.3593909 C87.6532585,85.0625499 96.57675,75.6327543 102.1208,64.8463762 C107.642763,54.033485 109.795224,41.8684301 106.309761,32.1569337 C102.846386,22.4476468 93.7671754,15.2228503 84.8922772,11.3342748 C75.9886649,7.4677935 67.2860519,6.99387337 56.5767578,4.58560786 C45.8398538,2.17734236 33.0962687,-2.13765078 21.4614937,1.24828214 Z" id="Path" fill="#F8F8F8" fill-rule="nonzero"></path>
                <path d="M0,71.4461538 C0,65.3820513 2.56796117,64.5 2.56796117,60.7512821 C2.56796117,45.5358974 7.7038835,43 11.0533981,43 C17.4174757,43 16.7029126,49.6032564 18.1990291,51.8205128 C21.5485437,56.7820513 23,60.4205128 23,63.8384615 C23,77.7307692 17.1941748,86 12.2815534,86 C6.9223301,86 0,78.5102821 0,71.4461538 Z" id="Path" fill="#74D5DE" fill-rule="nonzero"></path>
                <line x1="12" y1="62" x2="12" y2="96" id="Path" stroke="#FED892" stroke-width="3" stroke-linecap="round"></line>
                <line x1="12" y1="70" x2="17" y2="65" id="Path" stroke="#FED892" stroke-width="2" stroke-linecap="round"></line>
                <line x1="12" y1="79" x2="7" y2="74" id="Path" stroke="#FED892" stroke-width="2" stroke-linecap="round"></line>
                <rect id="Rectangle" fill="#DE8E68" fill-rule="nonzero" x="20" y="38" width="63" height="55"></rect>
                <rect id="Rectangle" fill="#D37C59" fill-rule="nonzero" x="18" y="89" width="67" height="4"></rect>
                <rect id="Rectangle" fill="#ED6E58" fill-rule="nonzero" x="27" y="67" width="17" height="26"></rect>
                <rect id="Rectangle" fill="#FED892" fill-rule="nonzero" x="48" y="67" width="12" height="15"></rect>
                <rect id="Rectangle" fill="#FED892" fill-rule="nonzero" x="67" y="67" width="12" height="15"></rect>
                <rect id="Rectangle" fill="#FED892" fill-rule="nonzero" x="16" y="46" width="71" height="2"></rect>
                <rect id="Rectangle" fill="#FED892" fill-rule="nonzero" x="15" y="60" width="71" height="4"></rect>
                <rect id="Rectangle" fill="#FED892" fill-rule="nonzero" x="24" y="44" width="12" height="15"></rect>
                <rect id="Rectangle" fill="#FFFFFF" fill-rule="nonzero" x="24" y="45" width="11" height="14"></rect>
                <rect id="Rectangle" fill="#FED892" fill-rule="nonzero" x="45" y="44" width="12" height="15"></rect>
                <rect id="Rectangle" fill="#FFFFFF" fill-rule="nonzero" x="46" y="45" width="11" height="14"></rect>
                <rect id="Rectangle" fill="#FED892" fill-rule="nonzero" x="67" y="44" width="12" height="15"></rect>
                <rect id="Rectangle" fill="#FFFFFF" fill-rule="nonzero" x="67" y="45" width="11" height="14"></rect>
                <rect id="Rectangle" fill="#ED6E58" fill-rule="nonzero" x="14" y="37" width="75" height="5"></rect>
                <polygon id="Path" fill="#FD8369" fill-rule="nonzero" points="89 37 83.0441176 25 19.9558824 25 14 37"></polygon>
                <rect id="Rectangle" fill="#ED6E58" fill-rule="nonzero" x="20" y="25" width="2" height="12"></rect>
                <rect id="Rectangle" fill="#ED6E58" fill-rule="nonzero" x="25" y="25" width="2" height="12"></rect>
                <rect id="Rectangle" fill="#ED6E58" fill-rule="nonzero" x="30" y="25" width="2" height="12"></rect>
                <rect id="Rectangle" fill="#ED6E58" fill-rule="nonzero" x="34" y="25" width="2" height="12"></rect>
                <rect id="Rectangle" fill="#ED6E58" fill-rule="nonzero" x="39" y="25" width="2" height="12"></rect>
                <rect id="Rectangle" fill="#ED6E58" fill-rule="nonzero" x="44" y="25" width="2" height="12"></rect>
                <rect id="Rectangle" fill="#ED6E58" fill-rule="nonzero" x="48" y="25" width="2" height="12"></rect>
                <rect id="Rectangle" fill="#ED6E58" fill-rule="nonzero" x="53" y="25" width="2" height="12"></rect>
                <rect id="Rectangle" fill="#ED6E58" fill-rule="nonzero" x="58" y="25" width="2" height="12"></rect>
                <rect id="Rectangle" fill="#ED6E58" fill-rule="nonzero" x="63" y="25" width="2" height="12"></rect>
                <rect id="Rectangle" fill="#ED6E58" fill-rule="nonzero" x="67" y="25" width="2" height="12"></rect>
                <rect id="Rectangle" fill="#ED6E58" fill-rule="nonzero" x="72" y="25" width="2" height="12"></rect>
                <rect id="Rectangle" fill="#ED6E58" fill-rule="nonzero" x="77" y="25" width="2" height="12"></rect>
                <rect id="Rectangle" fill="#ED6E58" fill-rule="nonzero" x="81" y="25" width="2" height="12"></rect>
                <polygon id="Path" fill="#C7FCFF" fill-rule="nonzero" points="35 47 24 57.619469 24 59 24.4536082 59 35 48.8184472"></polygon>
                <polygon id="Path" fill="#C7FCFF" fill-rule="nonzero" points="32.1649485 45 24 52.9558011 24 57 35 46.281768 35 45"></polygon>
                <polygon id="Path" fill="#C7FCFF" fill-rule="nonzero" points="57 47 46 57.619469 46 59 46.4536082 59 57 48.8184472"></polygon>
                <polygon id="Path" fill="#C7FCFF" fill-rule="nonzero" points="54.1649485 45 46 52.9558011 46 57 57 46.281768 57 45"></polygon>
                <rect id="Rectangle" fill="#FFFFFF" fill-rule="nonzero" x="49" y="68" width="10" height="14"></rect>
                <rect id="Rectangle" fill="#FFFFFF" fill-rule="nonzero" x="68" y="68" width="10" height="14"></rect>
                <polygon id="Path" fill="#C7FCFF" fill-rule="nonzero" points="59 70 49 80.619469 49 82 49.4123711 82 59 71.8184472"></polygon>
                <polygon id="Path" fill="#C7FCFF" fill-rule="nonzero" points="56.4226804 68 49 75.9558011 49 80 59 69.281768 59 68"></polygon>
                <polygon id="Path" fill="#C7FCFF" fill-rule="nonzero" points="78 70 68 80.619469 68 82 68.4123711 82 78 71.8184472"></polygon>
                <polygon id="Path" fill="#C7FCFF" fill-rule="nonzero" points="75.4226804 68 68 75.9558011 68 80 78 69.281768 78 68"></polygon>
                <polygon id="Path" fill="#C7FCFF" fill-rule="nonzero" points="78 47 67 57.619469 67 59 67.4536082 59 78 48.8184472"></polygon>
                <polygon id="Path" fill="#C7FCFF" fill-rule="nonzero" points="75.1649485 45 67 52.9558011 67 57 78 46.281768 78 45"></polygon>
                <rect id="Rectangle" fill="#74D5DE" fill-rule="nonzero" x="28" y="68" width="15" height="25"></rect>
                <rect id="Rectangle" fill="#ED6E58" fill-rule="nonzero" x="28" y="79" width="16" height="1"></rect>
            </g>
            <g id="storefront-colour" transform="translate(563.000000, 647.000000)">
                <path d="M21.4614937,1.24828214 C9.7991088,4.6397386 -0.758883562,15.6989799 0.0429053976,26.5129757 C0.815980152,37.3247622 2.77477442,73.6555491 10.5,86.5 C18.1998246,99.3698592 34.04669,86.9793362 43,93 C51.927909,99.019559 64.1473684,97.6562318 75.910253,91.3593909 C87.6532585,85.0625499 96.57675,75.6327543 102.1208,64.8463762 C107.642763,54.033485 109.795224,41.8684301 106.309761,32.1569337 C102.846386,22.4476468 93.7671754,15.2228503 84.8922772,11.3342748 C75.9886649,7.4677935 67.2860519,6.99387337 56.5767578,4.58560786 C45.8398538,2.17734236 33.0962687,-2.13765078 21.4614937,1.24828214 Z" id="Path" fill="#F8F8F8" fill-rule="nonzero"></path>
                <path d="M3,51.4461538 C3,45.3820513 5.56796117,44.5 5.56796117,40.7512821 C5.56796117,25.5358974 10.7038835,23 14.0533981,23 C20.4174757,23 19.7029126,29.6032564 21.1990291,31.8205128 C24.5485437,36.7820513 26,40.4205128 26,43.8384615 C26,57.7307692 20.1941748,66 15.2815534,66 C9.9223301,66 3,58.5102821 3,51.4461538 Z" id="Path" fill="#74D5DE" fill-rule="nonzero"></path>
                <line x1="15" y1="42" x2="15" y2="76" id="Path" stroke="#FED892" stroke-width="2" stroke-linecap="round"></line>
                <line x1="15" y1="50" x2="20" y2="45" id="Path" stroke="#FED892" stroke-linecap="round"></line>
                <line x1="15" y1="59" x2="10" y2="54" id="Path" stroke="#FED892" stroke-linecap="round"></line>
                <rect id="Rectangle" fill="#DE8E68" fill-rule="nonzero" x="23" y="26" width="63" height="47"></rect>
                <rect id="Rectangle" fill="#D37C59" fill-rule="nonzero" x="21" y="69" width="67" height="4"></rect>
                <rect id="Rectangle" fill="#ED6E58" fill-rule="nonzero" x="65" y="46" width="17" height="26"></rect>
                <rect id="Rectangle" fill="#FED892" fill-rule="nonzero" x="27" y="47" width="31" height="15"></rect>
                <rect id="Rectangle" fill="#FED892" fill-rule="nonzero" x="19" y="26" width="71" height="2"></rect>
                <rect id="Rectangle" fill="#ED6E58" fill-rule="nonzero" x="17" y="40" width="75" height="3"></rect>
                <polygon id="Path" fill="#FD8369" fill-rule="nonzero" points="92 40 86.0441176 28 22.9558824 28 17 40"></polygon>
                <rect id="Rectangle" fill="#ED6E58" fill-rule="nonzero" x="23" y="28" width="2" height="12"></rect>
                <rect id="Rectangle" fill="#ED6E58" fill-rule="nonzero" x="28" y="28" width="2" height="12"></rect>
                <rect id="Rectangle" fill="#ED6E58" fill-rule="nonzero" x="33" y="28" width="2" height="12"></rect>
                <rect id="Rectangle" fill="#ED6E58" fill-rule="nonzero" x="37" y="28" width="2" height="12"></rect>
                <rect id="Rectangle" fill="#ED6E58" fill-rule="nonzero" x="42" y="28" width="2" height="12"></rect>
                <rect id="Rectangle" fill="#ED6E58" fill-rule="nonzero" x="47" y="28" width="2" height="12"></rect>
                <rect id="Rectangle" fill="#ED6E58" fill-rule="nonzero" x="51" y="28" width="2" height="12"></rect>
                <rect id="Rectangle" fill="#ED6E58" fill-rule="nonzero" x="56" y="28" width="2" height="12"></rect>
                <rect id="Rectangle" fill="#ED6E58" fill-rule="nonzero" x="61" y="28" width="2" height="12"></rect>
                <rect id="Rectangle" fill="#ED6E58" fill-rule="nonzero" x="66" y="28" width="2" height="12"></rect>
                <rect id="Rectangle" fill="#ED6E58" fill-rule="nonzero" x="70" y="28" width="2" height="12"></rect>
                <rect id="Rectangle" fill="#ED6E58" fill-rule="nonzero" x="75" y="28" width="2" height="12"></rect>
                <rect id="Rectangle" fill="#ED6E58" fill-rule="nonzero" x="80" y="28" width="2" height="12"></rect>
                <rect id="Rectangle" fill="#ED6E58" fill-rule="nonzero" x="84" y="28" width="2" height="12"></rect>
                <rect id="Rectangle" fill="#FFFFFF" fill-rule="nonzero" x="28" y="48" width="29" height="13"></rect>
                <rect id="Rectangle" fill="#74D5DE" fill-rule="nonzero" x="66" y="47" width="15" height="25"></rect>
                <rect id="Rectangle" fill="#ED6E58" fill-rule="nonzero" x="66" y="58" width="16" height="1"></rect>
                <polygon id="Path" fill="#C7FCFF" fill-rule="nonzero" points="41.6084056 48 29 61 37.3915944 61 50 48"></polygon>
                <polygon id="Path" fill="#C7FCFF" fill-rule="nonzero" points="40.6914385 61 54 48 52.3085615 48 39 61"></polygon>
                <polygon id="Path" fill="#C7FCFF" fill-rule="nonzero" points="57 48 55.2083992 48 42 61 45.9365545 61 57 50.1111111"></polygon>
            </g>
            <g id="storefront-colour" transform="translate(563.000000, 778.000000)" fill-rule="nonzero">
                <path d="M21.4614937,1.24828214 C9.7991088,4.6397386 -0.758883562,15.6989799 0.0429053976,26.5129757 C0.815980152,37.3247622 12.9841768,47.8868844 20.7094024,60.7313353 C28.4092269,73.6011946 31.6947946,88.7544872 40.6481047,94.7751509 C49.5760137,100.79471 64.1473684,97.6562318 75.910253,91.3593909 C87.6532585,85.0625499 96.57675,75.6327543 102.1208,64.8463762 C107.642763,54.033485 109.795224,41.8684301 106.309761,32.1569337 C102.846386,22.4476468 93.7671754,15.2228503 84.8922772,11.3342748 C75.9886649,7.4677935 67.2860519,6.99387337 56.5767578,4.58560786 C45.8398538,2.17734236 33.0962687,-2.13765078 21.4614937,1.24828214 Z" id="Path" fill="#F8F8F8"></path>
                <rect id="Rectangle" fill="#DE8E68" x="20" y="13" width="63" height="80"></rect>
                <rect id="Rectangle" fill="#D37C59" x="18" y="89" width="67" height="4"></rect>
                <rect id="Rectangle" fill="#ED6E58" x="27" y="67" width="17" height="26"></rect>
                <rect id="Rectangle" fill="#FED892" x="48" y="67" width="31" height="15"></rect>
                <rect id="Rectangle" fill="#FED892" x="16" y="46" width="71" height="2"></rect>
                <rect id="Rectangle" fill="#FED892" x="16" y="32" width="71" height="2"></rect>
                <rect id="Rectangle" fill="#FED892" x="16" y="10" width="71" height="4"></rect>
                <rect id="Rectangle" fill="#FED892" x="24" y="17" width="12" height="15"></rect>
                <rect id="Rectangle" fill="#FFFFFF" x="24" y="18" width="11" height="14"></rect>
                <rect id="Rectangle" fill="#FED892" x="45" y="17" width="12" height="15"></rect>
                <rect id="Rectangle" fill="#FFFFFF" x="46" y="18" width="11" height="14"></rect>
                <rect id="Rectangle" fill="#FED892" x="67" y="17" width="12" height="15"></rect>
                <rect id="Rectangle" fill="#FFFFFF" x="67" y="18" width="11" height="14"></rect>
                <rect id="Rectangle" fill="#ED6E58" x="14" y="60" width="75" height="3"></rect>
                <polygon id="Path" fill="#FD8369" points="89 60 83.0441176 48 19.9558824 48 14 60"></polygon>
                <rect id="Rectangle" fill="#ED6E58" x="20" y="48" width="2" height="12"></rect>
                <rect id="Rectangle" fill="#ED6E58" x="25" y="48" width="2" height="12"></rect>
                <rect id="Rectangle" fill="#ED6E58" x="30" y="48" width="2" height="12"></rect>
                <rect id="Rectangle" fill="#ED6E58" x="34" y="48" width="2" height="12"></rect>
                <rect id="Rectangle" fill="#ED6E58" x="39" y="48" width="2" height="12"></rect>
                <rect id="Rectangle" fill="#ED6E58" x="44" y="48" width="2" height="12"></rect>
                <rect id="Rectangle" fill="#ED6E58" x="48" y="48" width="2" height="12"></rect>
                <rect id="Rectangle" fill="#ED6E58" x="53" y="48" width="2" height="12"></rect>
                <rect id="Rectangle" fill="#ED6E58" x="58" y="48" width="2" height="12"></rect>
                <rect id="Rectangle" fill="#ED6E58" x="63" y="48" width="2" height="12"></rect>
                <rect id="Rectangle" fill="#ED6E58" x="67" y="48" width="2" height="12"></rect>
                <rect id="Rectangle" fill="#ED6E58" x="72" y="48" width="2" height="12"></rect>
                <rect id="Rectangle" fill="#ED6E58" x="77" y="48" width="2" height="12"></rect>
                <rect id="Rectangle" fill="#ED6E58" x="81" y="48" width="2" height="12"></rect>
                <rect id="Rectangle" fill="#FFFFFF" x="49" y="68" width="29" height="13"></rect>
                <polygon id="Path" fill="#C7FCFF" points="35 20 24 30.619469 24 32 24.4536082 32 35 21.8184472"></polygon>
                <polygon id="Path" fill="#C7FCFF" points="32.1649485 18 24 25.9558011 24 30 35 19.281768 35 18"></polygon>
                <polygon id="Path" fill="#C7FCFF" points="57 20 46 30.619469 46 32 46.4536082 32 57 21.8184472"></polygon>
                <polygon id="Path" fill="#C7FCFF" points="54.1649485 18 46 25.9558011 46 30 57 19.281768 57 18"></polygon>
                <polygon id="Path" fill="#C7FCFF" points="78 20 67 30.619469 67 32 67.4536082 32 78 21.8184472"></polygon>
                <polygon id="Path" fill="#C7FCFF" points="75.1649485 18 67 25.9558011 67 30 78 19.281768 78 18"></polygon>
                <rect id="Rectangle" fill="#74D5DE" x="28" y="68" width="15" height="25"></rect>
                <rect id="Rectangle" fill="#ED6E58" x="28" y="79" width="16" height="1"></rect>
                <rect id="Rectangle" fill="#FD8369" x="83" y="40" width="9" height="1"></rect>
                <circle id="Oval" fill="#74D5DE" cx="94.5" cy="40.5" r="4.5"></circle>
                <circle id="Oval" fill="#FED892" cx="94.5" cy="40.5" r="3.5"></circle>
                <polygon id="Path" fill="#C7FCFF" points="62.6084056 68 50 81 58.3915944 81 71 68"></polygon>
                <polygon id="Path" fill="#C7FCFF" points="61.6914385 81 75 68 73.3085615 68 60 81"></polygon>
                <polygon id="Path" fill="#C7FCFF" points="78 68 76.2083992 68 63 81 66.9365545 81 78 70.1111111"></polygon>
            </g>
        </g>
    </g>
</svg>
