<?xml version="1.0" encoding="UTF-8"?>
<svg width="882px" height="637px" viewBox="0 0 882 637" version="1.1" xmlns="http://www.w3.org/2000/svg" xmlns:xlink="http://www.w3.org/1999/xlink">
    <!-- Generator: Sketch 64 (93537) - https://sketch.com -->
    <title>Page 1</title>
    <desc>Created with Sketch.</desc>
    <g id="Page-1" stroke="none" stroke-width="1" fill="none" fill-rule="evenodd">
        <g id="Artboard" transform="translate(-127.000000, -201.000000)">
            <path d="M353.91912,572.45986 C353.91912,572.45986 355.76894,609.456 276.84385,655.08455 C276.84385,655.08455 276.75016,655.28627 854.6001,655.08455 C854.6001,655.08455 788.62368,608.2228 784.30746,555.81155" id="Path" fill="#000000" fill-rule="nonzero" opacity="0.2"></path>
            <path d="M781.86402,546.01114 L781.86402,235.13027 C789.516332,233.148583 794.86108,226.244013 794.86174,218.33927 L794.86174,218.33927 C794.861737,213.74062 793.034926,209.330321 789.783185,206.078589 C786.531444,202.826858 782.12114,201.00007 777.52249,201.00007 L361.38044,201.00007 C356.781791,201.00007 352.371488,202.826861 349.119748,206.078592 C345.868007,209.330323 344.041195,213.740621 344.04119,218.33927 L344.04119,218.33927 C344.04119,227.915473 351.804237,235.67852 361.38044,235.67852 L361.38421,235.67852 L351.75012,546.28627 L274.400417,645.285064 C274.400417,645.285064 273.75012,645.285064 852.15666,645.285064 C852.15666,645.285064 851.75012,646.28627 781.86402,546.01114 Z" id="Path" fill="#E6E6E6" fill-rule="nonzero"></path>
            <ellipse id="Oval" fill="#000000" fill-rule="nonzero" opacity="0.2" cx="585.1012" cy="600.55668" rx="127.40581" ry="9.80045"></ellipse>
            <polygon id="Path" fill="#000000" fill-rule="nonzero" opacity="0.2" points="361.38 235.679 781.864 247.925 782.046 234.925"></polygon>
            <rect id="Rectangle" fill="#E6E8EC" fill-rule="nonzero" x="564.22581" y="277.51818" width="23.17492" height="4.70583" rx="1.47923"></rect>
            <circle id="Oval" fill="#E6E8EC" fill-rule="nonzero" cx="593.57396" cy="279.87109" r="2.66916"></circle>
            <g id="shipping-package-colour" transform="translate(486.000000, 279.000000)">
                <line x1="71" y1="141" x2="115" y2="90.2532414" id="Path" stroke="#FED385" stroke-width="5" stroke-linecap="round"></line>
                <line x1="71" y1="141" x2="84" y2="74.2525654" id="Path" stroke="#FED385" stroke-width="5" stroke-linecap="round"></line>
                <g id="Group-2" transform="translate(55.000000, 0.000000)" fill="#FD8369" fill-rule="nonzero">
                    <ellipse id="Oval" transform="translate(37.998379, 43.328909) rotate(-70.010000) translate(-37.998379, -43.328909) " cx="37.9983794" cy="43.3289088" rx="35.2862631" ry="27.5576807"></ellipse>
                    <path d="M29.1923403,72.9900682 L33.7383155,79.589035 C34.0069196,79.9835434 34.0456159,80.4909034 33.8399982,80.9222298 C33.6343805,81.3535562 33.2152526,81.6442316 32.7386517,81.6860404 L24.7376819,82.3531896 C24.2588877,82.3906225 23.7967248,82.1711145 23.5244059,81.7769344 C23.252087,81.3827543 23.2107348,80.8734268 23.4158476,80.4398416 L26.870827,73.1911934 C27.0746512,72.7563831 27.4954578,72.4628582 27.9744888,72.4213572 C28.4535198,72.3798561 28.9178649,72.5966955 29.1923403,72.9900682 Z" id="Path" transform="translate(28.628782, 77.386813) rotate(19.000000) translate(-28.628782, -77.386813) "></path>
                </g>
                <ellipse id="Oval" fill="#74D5DE" fill-rule="nonzero" transform="translate(136.016629, 54.668713) rotate(-64.050000) translate(-136.016629, -54.668713) " cx="136.016629" cy="54.6687128" rx="39.1905687" ry="33.1145809"></ellipse>
                <g id="Group" transform="translate(49.428994, 59.536908) rotate(-35.000000) translate(-49.428994, -59.536908) translate(16.428994, 21.036908)" fill="#FED385" fill-rule="nonzero">
                    <ellipse id="Oval" transform="translate(33.108276, 38.592475) rotate(-73.120000) translate(-33.108276, -38.592475) " cx="33.1082759" cy="38.592475" rx="32.6879613" ry="24.30409"></ellipse>
                    <path d="M24.5299145,66.7313188 L26.366926,74.5554412 C26.4754648,75.022844 26.32585,75.5125139 25.9744293,75.8400325 C25.6230087,76.1675511 25.1231591,76.2831718 24.6631329,76.1433498 L16.9504892,73.8104532 C16.4898685,73.6713136 16.138737,73.2974319 16.0295152,72.8298083 C15.9202934,72.3621847 16.0695976,71.8719603 16.4211214,71.544011 L22.2967536,66.0562827 C22.6477019,65.7272904 23.1480652,65.6103826 23.6089416,65.7496955 C24.0698181,65.8890084 24.4210033,66.2633209 24.5299145,66.7313188 L24.5299145,66.7313188 Z" id="Path"></path>
                </g>
                <line x1="70" y1="141" x2="50" y2="67.2537143" id="Path" stroke="#FED385" stroke-width="5" stroke-linecap="round"></line>
                <path d="M119.996838,86.4748196 L119.431538,94.7089214 C119.399882,95.2039723 119.109695,95.6436865 118.671378,95.8607774 C118.233061,96.0778683 117.713998,96.0389617 117.311664,95.7588593 L110.598728,91.1420092 C110.196145,90.8660085 109.969123,90.3921481 110.003396,89.8993776 C110.037669,89.4066072 110.328014,88.970016 110.764785,88.7544792 L118.05362,85.1372275 C118.488891,84.9234573 119.003039,84.9614792 119.403371,85.2370434 C119.803703,85.5126075 120.029767,85.9841021 119.996838,86.4748196 Z" id="Path" fill="#74D5DE" fill-rule="nonzero"></path>
                <g id="Box" transform="translate(5.000000, 129.000000)" fill-rule="nonzero">
                    <polygon id="Rectangle" fill="#DE8E68" transform="translate(72.108312, 37.943028) rotate(-168.760000) translate(-72.108312, -37.943028) " points="39.8077499 13.8725747 104.596769 13.6256262 104.408873 62.0134823 39.6198543 62.2604308"></polygon>
                    <polygon id="Path" fill="#D37C59" points="110.788571 41.0860309 108.674286 20.3643814 47.712381 8.6221134 50.149252 28.1499551"></polygon>
                    <polygon id="Rectangle" fill="#D37C59" transform="translate(23.980568, 28.562486) rotate(-168.760000) translate(-23.980568, -28.562486) " points="4.70823345 4.44237434 43.4407991 4.29474211 43.2529035 52.6825982 4.52033788 52.8302305"></polygon>
                    <polygon id="Path" fill="#DE8E68" points="0.140952381 18.7425592 9.6552381 1.02417526 47.712381 8.52007498 37.6619947 26.0628351"></polygon>
                    <g id="address" transform="translate(57.931429, 36.596340)">
                        <polygon id="Rectangle" fill="#FED385" transform="translate(15.159429, 10.200232) rotate(-168.760000) translate(-15.159429, -10.200232) " points="1.44883355 2.80951198 28.9278283 2.70477362 28.8700236 17.5909519 1.39102882 17.6956903"></polygon>
                        <polygon id="Rectangle" fill="#FD8369" transform="translate(23.182389, 11.619846) rotate(-168.760000) translate(-23.182389, -11.619846) " points="20.0977392 6.22434035 26.3090343 6.20066551 26.2670396 17.0153514 20.0557445 17.0390262"></polygon>
                        <polygon id="Rectangle" fill="#FD8369" transform="translate(12.082872, 5.058137) rotate(-168.760000) translate(-12.082872, -5.058137) " points="4.32627403 4.05774666 19.8474694 3.9985864 19.8394705 6.05852656 4.31827505 6.11768682"></polygon>
                        <polygon id="Rectangle" fill="#FD8369" transform="translate(11.378403, 8.512313) rotate(-168.760000) translate(-11.378403, -8.512313) " points="3.62180461 7.51192307 19.143 7.45276281 19.135001 9.51270297 3.61380563 9.57186323"></polygon>
                    </g>
                </g>
            </g>
            <g id="undraw_product_photography_91i2" transform="translate(127.000000, 247.000000)">
                <path d="M227.13412,0.18691 L165.06023,0.57246 C165.06023,0.57246 62.88886,54.93527 134.60157,167.51654 C134.60157,167.51654 163.90357,160.5766 196.28991,184.48084 C196.28991,184.48084 215.18197,4.42798 227.13412,0.18691 Z" id="Path" fill="#6C63FF" fill-rule="nonzero"></path>
                <path d="M208.66912,0.75044 C197.5483,47.20402 184.97653,167.01684 184.97653,167.01684 C156.04161,145.66014 129.58753,148.92166 124.27364,149.85978 C127.407987,156.065699 130.855062,162.108661 134.60158,167.96538 C134.60158,167.96538 163.90351,161.02543 196.28989,184.92967 C196.28989,184.92967 215.18189,4.87683 227.13408,0.63576 L208.66912,0.75044 Z" id="Path" fill="#000000" fill-rule="nonzero" opacity="0.2"></path>
                <polygon id="Path" fill="#3F3D56" fill-rule="nonzero" points="134.216 58.405 128.818 84.623 60.984 72.293 60.961 72.285 59.419 41.441 72.528 41.441"></polygon>
                <polygon id="Path" fill="#000000" fill-rule="nonzero" opacity="0.2" points="71.433 41.441 60.984 72.293 60.961 72.285 59.419 41.441"></polygon>
                <ellipse id="Oval" fill="#3F3D56" fill-rule="nonzero" cx="131.9027" cy="69.97185" rx="7.71104" ry="17.7354"></ellipse>
                <path d="M91.80532,444.77193 C91.180186,444.77193 90.5806384,444.523685 90.1386019,444.081648 C89.6965655,443.639612 89.448259,443.040064 89.44832,442.41493 L89.44832,69.97193 C89.44832,68.6702225 90.5035625,67.61498 91.80527,67.61498 C93.1069775,67.61498 94.16222,68.6702225 94.16222,69.97193 L94.16222,442.41493 C94.162281,443.040047 93.9139883,443.639579 93.4719734,444.081613 C93.0299586,444.523646 92.4304366,444.77193 91.80532,444.77193 L91.80532,444.77193 Z" id="Path" fill="#3F3D56" fill-rule="nonzero"></path>
                <path d="M124.189,510.31635 C123.062403,510.31635 122.094384,509.516268 121.87854,508.41054 L89.49212,342.38265 C89.2765567,341.276894 89.8736089,340.17318 90.9170655,339.748488 C91.9605222,339.323797 93.1586335,339.696871 93.77652,340.63888 L179.36882,471.19556 C180.082728,472.284215 179.778935,473.745482 178.69028,474.45939 C177.601624,475.173298 176.140358,474.869505 175.42645,473.78085 L96.41745,353.26606 L126.50498,507.50827 C126.624785,508.121844 126.495893,508.757879 126.14667,509.276404 C125.797446,509.79493 125.256509,510.153455 124.6429,510.27308 C124.493325,510.301939 124.341333,510.31635 124.189,510.31635 Z" id="Path" fill="#3F3D56" fill-rule="nonzero"></path>
                <path d="M2.35487,481.013743 C1.48950532,481.013743 0.694285021,480.537581 0.283334195,479.776019 C-0.127616632,479.014457 -0.0882091641,478.088943 0.38599,477.36507 L89.83413,340.88007 C90.5485852,339.794105 92.0074324,339.491696 93.0946927,340.204179 C94.181953,340.916662 94.4870085,342.374958 93.7765,343.46351 L4.32836,479.94851 C3.8927688,480.614225 3.15042904,481.013743 2.35487,481.013743 Z" id="Path" fill="#3F3D56" fill-rule="nonzero"></path>
                <path d="M654.36612,0.18691 L716.44001,0.57246 C716.44001,0.57246 818.61138,54.93527 746.89867,167.51654 C746.89867,167.51654 717.59667,160.5766 685.21033,184.48084 C685.21033,184.48084 666.31827,4.42798 654.36612,0.18691 Z" id="Path" fill="#6C63FF" fill-rule="nonzero"></path>
                <path d="M672.83112,0.75044 C683.95194,47.20402 696.52371,167.01684 696.52371,167.01684 C725.45863,145.66014 751.91271,148.92166 757.2266,149.85978 C754.092253,156.065699 750.645178,162.108661 746.89866,167.96538 C746.89866,167.96538 717.59673,161.02543 685.21035,184.92967 C685.21035,184.92967 666.31835,4.87683 654.36616,0.63576 L672.83112,0.75044 Z" id="Path" fill="#000000" fill-rule="nonzero" opacity="0.2"></path>
                <polygon id="Path" fill="#3F3D56" fill-rule="nonzero" points="747.284 58.405 752.682 84.623 820.516 72.293 820.539 72.285 822.081 41.441 808.973 41.441"></polygon>
                <polygon id="Path" fill="#000000" fill-rule="nonzero" opacity="0.2" points="810.067 41.441 820.516 72.293 820.539 72.285 822.081 41.441"></polygon>
                <ellipse id="Oval" fill="#3F3D56" fill-rule="nonzero" cx="749.59754" cy="69.97185" rx="7.71104" ry="17.7354"></ellipse>
                <path d="M789.69492,444.77193 C789.069795,444.77193 788.47026,444.523665 788.028234,444.08163 C787.586209,443.639595 787.337909,443.040055 787.33797,442.41493 L787.33797,69.97193 C787.33797,68.6702225 788.393212,67.61498 789.69492,67.61498 C790.996628,67.61498 792.05187,68.6702225 792.05187,69.97193 L792.05187,442.41493 C792.051931,443.040055 791.803631,443.639595 791.361606,444.08163 C790.91958,444.523665 790.320045,444.77193 789.69492,444.77193 L789.69492,444.77193 Z" id="Path" fill="#3F3D56" fill-rule="nonzero"></path>
                <path d="M757.3117,510.316351 C757.159365,510.316351 757.007369,510.301981 756.8578,510.27308 C755.580149,510.02369 754.746382,508.786021 754.99526,507.50827 L785.08226,353.26514 L706.07376,473.78085 C705.611942,474.485087 704.8095,474.889451 703.968704,474.841624 C703.127908,474.793796 702.376497,474.301043 701.997519,473.548979 C701.618541,472.796915 701.669572,471.899797 702.13139,471.19556 L787.72371,340.63888 C788.341696,339.69692 789.53981,339.323886 790.583295,339.748543 C791.62678,340.173201 792.223944,341.276843 792.00857,342.38265 L759.62257,508.41054 C759.406388,509.516235 758.438329,510.314608 757.3117,510.316351 Z" id="Path" fill="#3F3D56" fill-rule="nonzero"></path>
                <path d="M879.14491,481.013742 C878.349488,481.013742 877.607305,480.614189 877.17191,479.94851 L787.72377,343.46351 C787.013261,342.374958 787.318317,340.916662 788.405577,340.204179 C789.492838,339.491696 790.951685,339.794105 791.66614,340.88007 L881.11428,477.36507 C881.588531,478.089011 881.627902,479.01463 881.216836,479.776226 C880.80577,480.537823 880.01039,481.013742 879.14494,481.013742 L879.14491,481.013742 Z" id="Path" fill="#3F3D56" fill-rule="nonzero"></path>
                <path d="M387.02717,281.28827 L403.91442,276.58651 C403.91442,276.58651 410.52906,275.26602 406.48732,262.34751 C402.44558,249.429 394.42947,253.04451 394.42947,253.04451 L379.44878,257.39678 L373.53428,259.22331 L381.85623,270.89831 L382.5538,278.67993 L387.02717,281.28827 Z" id="Path" fill="#3F3D56" fill-rule="nonzero"></path>
                <polygon id="Path" fill="#3F3D56" fill-rule="nonzero" points="354.396 247.155 349.098 268.319 376.245 294.629 378.579 295.214 384.805 293.465 390.104 272.302 384.737 266.658 390.223 265.221 378.516 253.856 372.407 255.138 367.507 250.273 370.814 248.951 371.126 247.706 367.12 244.553"></polygon>
                <polygon id="Path" fill="#6C63FF" fill-rule="nonzero" points="379.831 277.006 376.324 291.011 360.144 275.715 364.196 261.515"></polygon>
                <polygon id="Path" stroke="#3F3D56" points="354.396 247.155 353.653 250.123 380.648 276.384 382.982 276.968 389.014 275.336 389.346 275.329 390.104 272.302 384.737 266.658 390.223 265.221 378.516 253.856 372.407 255.138 367.507 250.273 370.814 248.951 371.126 247.706 367.12 244.553"></polygon>
                <ellipse id="Oval" fill="#6C63FF" fill-rule="nonzero" transform="translate(366.866106, 246.887378) rotate(-75.943480) translate(-366.866106, -246.887378) " cx="366.866106" cy="246.887378" rx="1.52396" ry="2.24584"></ellipse>
                <ellipse id="Oval" fill="#6C63FF" fill-rule="nonzero" transform="translate(384.016026, 269.537264) rotate(-75.943480) translate(-384.016026, -269.537264) " cx="384.016026" cy="269.537264" rx="1.52396" ry="2.24584"></ellipse>
                <path d="M398.24724,307.65227 L394.56453,295.13106 C394.56453,295.13106 404.13953,272.29828 393.09145,270.08865 C382.04337,267.87902 381.30678,291.44836 381.30678,291.44836 L385.72603,305.44264 L398.24724,307.65227 Z" id="Path" fill="#FFB6B6" fill-rule="nonzero"></path>
                <circle id="Oval" fill="#FFB6B6" fill-rule="nonzero" cx="329.87285" cy="254.04879" r="29.25747"></circle>
                <path d="M339.3385,274.70112 C339.3385,274.70112 341.0595,296.21397 345.3621,297.93499 C349.6647,299.65601 298.89436,311.70327 298.89436,311.70327 L311.80206,297.07453 C311.80206,297.07453 314.38361,274.70117 308.36006,269.53809 L339.3385,274.70112 Z" id="Path" fill="#FFB6B6" fill-rule="nonzero"></path>
                <path d="M380.57024,301.02336 L392.3549,299.55028 C392.3549,299.55028 406.34919,306.9157 406.34919,316.49073 C406.34919,326.06576 414.45119,341.53314 414.45119,341.53314 C414.45119,341.53314 420.34352,362.15631 407.08577,363.62939 C393.82802,365.10247 382.04336,341.53314 382.04336,341.53314 L380.57024,301.02336 Z" id="Path" fill="#6C63FF" fill-rule="nonzero"></path>
                <path d="M387.19912,418.13346 C387.19912,418.13346 412.97812,393.82759 420.34349,395.30067 C427.70886,396.77375 442.43973,398.98338 442.43973,410.0315 C442.43973,421.07962 418.13387,446.85857 418.13387,446.85857 C418.13387,446.85857 399.72033,487.36835 382.04333,488.84144 C370.415022,489.896116 358.856857,491.617545 347.42589,493.99723 C347.42589,493.99723 355.52784,523.45888 351.10859,531.56084 C346.68934,539.6628 329.74889,549.23784 328.27581,548.50129 C326.80273,547.76474 306.17956,528.61467 297.34107,501.36264 C288.50258,474.11061 282.61024,453.48745 290.71219,452.01436 C298.81414,450.54127 387.19912,418.13346 387.19912,418.13346 Z" id="Path" fill="#2F2E41" fill-rule="nonzero"></path>
                <path d="M440.23012,407.82188 C440.23012,407.82188 445.38591,407.08533 444.64937,419.60654 C443.91283,432.12775 441.7032,477.05677 438.02049,485.89527 C434.33778,494.73377 433.60125,505.04535 435.07433,508.72805 C436.54741,512.41075 439.49358,518.30305 434.33779,519.03964 C429.182,519.77623 407.8223,516.83001 405.61267,516.09347 C403.40304,515.35693 401.19342,502.83572 402.6665,502.83572 C404.13958,502.83572 407.8223,502.09918 406.34921,496.94339 C404.87612,491.7876 404.13959,491.7876 406.34921,490.31452 C408.55883,488.84144 414.45121,486.63181 412.97809,485.15873 C411.50497,483.68565 410.03192,449.0682 410.03192,449.0682 L440.23012,407.82188 Z" id="Path" fill="#2F2E41" fill-rule="nonzero"></path>
                <path d="M432.86468,516.83001 C432.86468,516.83001 445.38589,513.14727 446.85897,521.24926 C446.85897,521.24926 449.0686,533.77046 439.49356,538.18971 C433.314498,541.109964 427.400051,544.560057 421.81656,548.50129 C421.81656,548.50129 406.34919,554.39363 405.61265,547.02821 C404.87611,539.66279 408.55882,513.14727 408.55882,513.14727 L432.86468,516.83001 Z" id="Path" fill="#2F2E41" fill-rule="nonzero"></path>
                <path d="M349.6355,525.66851 L326.06617,506.51843 C326.06617,506.51843 330.48542,530.08776 324.59309,534.50701 L321.90155,542.37588 L329.43861,548.54131 C329.43861,548.54131 352.58167,544.81859 349.6355,525.66851 Z" id="Path" fill="#2F2E41" fill-rule="nonzero"></path>
                <path d="M316.49112,493.26068 C316.49112,493.26068 331.9585,497.67993 329.74887,513.1473 C327.53924,528.61467 324.70617,545.41884 324.70617,545.41884 C324.70617,545.41884 323.85654,586.80145 312.80842,589.74761 C301.7603,592.69377 298.81413,586.80145 298.81413,586.80145 C298.81413,586.80145 286.25552,554.46384 289.97563,544.81859 C294.47863,533.14384 300.96729,520.03485 298.81413,516.09347 C296.6955,512.21521 300.28722,491.05106 316.49112,493.26068 Z" id="Path" fill="#2F2E41" fill-rule="nonzero"></path>
                <path d="M307.65264,289.97527 C307.65264,289.97527 313.54497,290.71181 323.12001,292.1849 C332.69505,293.65799 339.32392,286.29257 344.47971,287.76565 C349.6355,289.23873 392.3549,299.55027 392.3549,299.55027 L385.72603,350.37163 C385.72603,350.37163 393.82803,409.29495 392.3549,419.60653 C390.88177,429.91811 410.0319,428.44503 398.98378,440.96623 C387.93566,453.48743 368.78558,464.53556 329.74888,460.85285 C290.71218,457.17014 285.55639,457.90668 285.55639,452.01435 C285.55639,446.12202 294.39489,396.0372 291.44873,391.61795 C288.50257,387.1987 282.61023,382.04295 285.55639,376.88712 C288.50255,371.73129 291.44873,368.78517 287.02948,364.36592 C282.61023,359.94667 280.4006,355.52742 280.4006,353.3178 C280.4006,351.10818 270.08902,315.01764 270.08902,315.01764 C270.08902,315.01764 274.50827,297.34064 279.66402,296.60411 C284.81977,295.86758 289.23902,292.18486 292.92177,292.18486 C296.60452,292.18486 298.8141,292.9214 301.02372,292.18486 L307.65264,289.97527 Z" id="Path" fill="#6C63FF" fill-rule="nonzero"></path>
                <path d="M378.28385,243.78693 C377.90495,242.08449 376.05003,236.39293 372.27885,235.00435 C369.5197,233.98843 364.38585,236.13495 361.82885,235.77887 L361.49921,234.84235 C361.280334,232.998206 360.820675,231.190706 360.13198,229.46604 C357.402478,222.497562 351.951998,216.9417 345.03706,214.07927 C336.61521,210.55863 323.29406,207.64756 311.73662,216.87277 C295.86183,229.54412 298.65914,248.50498 299.81262,253.76577 C300.00506,254.643337 300.169917,255.526463 300.30719,256.41515 C301.0186,261.04915 303.06884,261.60198 303.06884,261.60198 C303.06884,261.60198 303.02469,261.46845 302.9526,261.22479 L317.29116,262.62056 L325.04322,261.29756 C325.1729,262.05566 325.22322,262.50382 325.22322,262.50382 C347.84469,259.04607 361.00876,247.13082 363.14655,245.06453 C365.02581,246.31042 368.52585,248.34483 371.92008,248.79113 C376.89118,249.44472 378.66276,245.48936 378.28385,243.78693 Z M319.99712,255.17866 L301.78097,254.51607 C301.52273,249.54382 302.80678,243.72954 310.12889,243.43284 C317.18865,243.14677 321.04211,248.88651 323.08422,254.14178 L319.99712,255.17866 Z" id="Shape" fill="#2F2E41" fill-rule="nonzero"></path>
                <ellipse id="Oval" fill="#2F2E41" fill-rule="nonzero" transform="translate(324.552169, 211.460638) rotate(-9.685160) translate(-324.552169, -211.460638) " cx="324.552169" cy="211.460638" rx="3.22255" ry="1.21934"></ellipse>
            </g>
        </g>
    </g>
</svg>
