<?xml version="1.0" encoding="UTF-8"?>
<svg width="842px" height="679px" viewBox="0 0 842 679" version="1.1" xmlns="http://www.w3.org/2000/svg" xmlns:xlink="http://www.w3.org/1999/xlink">
    <!-- Generator: Sketch 64 (93537) - https://sketch.com -->
    <title>undraw_business_shop_qw5t</title>
    <desc>Created with Sketch.</desc>
    <g id="Page-1" stroke="none" stroke-width="1" fill="none" fill-rule="evenodd">
        <g id="Artboard" transform="translate(-269.000000, -244.000000)">
            <g id="undraw_business_shop_qw5t" transform="translate(269.000000, 244.000000)" fill-rule="nonzero">
                <ellipse id="Oval" fill="#3F3D56" cx="426" cy="645.87637" rx="416" ry="32.5"></ellipse>
                <polygon id="Path" fill="#A0616A" points="779.369 585.5 783.268 614.093 755.975 616.692 759.874 581.601"></polygon>
                <path d="M650.70151,193.00065 C650.70151,193.00065 653.30084,228.09165 653.30084,229.39134 C653.30084,230.69103 635.1055,320.36809 635.1055,320.36809 C635.1055,320.36809 609.11214,369.75546 635.1055,368.45579 C661.09886,367.15612 653.30084,321.66779 653.30084,321.66779 L680.59384,246.28707 L668.89684,193.00065 L650.70151,193.00065 Z" id="Path" fill="#A0616A"></path>
                <polygon id="Path" fill="#A0616A" points="693.591 585.5 689.692 614.093 716.985 616.692 713.086 581.601"></polygon>
                <path d="M663.69819,317.76875 L657.19985,326.86643 C657.19985,326.86643 653.30085,365.85643 657.19985,378.85313 C661.09885,391.84983 668.89685,451.63453 668.89685,455.53353 C668.89685,459.43253 670.19651,462.03187 668.89685,463.33153 C667.59719,464.63119 663.69818,464.6312 666.29751,467.23053 C668.89684,469.82986 668.89685,477.62787 668.89685,477.62787 L668.89685,484.12619 L685.79253,580.30161 C685.79253,580.30161 675.39519,591.99861 683.19319,591.99861 C690.99119,591.99861 719.58389,591.99861 718.28419,579.00194 L715.68486,577.70227 C715.68486,577.70227 711.78586,491.9242 713.08552,488.0252 C714.38518,484.1262 713.08552,476.3282 713.08552,476.3282 C713.08552,476.3282 710.48618,472.4292 713.08552,471.12952 C715.68486,469.82984 715.68486,459.43252 715.68486,459.43252 L727.38186,380.15278 C727.38186,380.15278 737.7792,433.43916 744.27754,438.63783 C750.77588,443.8365 749.47621,456.83318 749.47621,456.83318 L754.67488,571.20394 C754.67488,571.20394 749.47621,584.20062 754.67488,586.79994 C759.87355,589.39926 781.96788,598.49694 783.26757,585.50028 C784.56726,572.50362 791.06557,459.43251 791.06557,454.23383 C791.06557,449.03515 789.76591,446.43583 791.06557,442.53683 C792.36523,438.63783 789.76591,438.63783 791.06557,438.63783 C792.36523,438.63783 788.46624,434.73883 788.46624,432.13949 L788.46624,368.45579 C788.46624,368.45579 789.76591,355.45912 791.06557,352.85979 C792.36523,350.26046 789.76591,347.66112 791.06557,343.76212 C792.36523,339.86312 788.46624,326.86644 788.46624,326.86644 L729.98124,311.27044 L663.69819,317.76875 Z" id="Path" fill="#2F2E41"></path>
                <path d="M709.18656,608.89433 C709.18656,608.89433 715.6849,602.39599 706.58722,602.39599 C700.746524,602.515109 694.993803,603.842658 689.69154,606.29499 L683.1932,629.68899 C683.1932,629.68899 656.55,651.13353 686.44237,648.53419 C716.33474,645.93485 711.78589,647.88436 711.78589,647.88436 C711.78589,647.88436 720.88357,645.28502 722.18323,642.68569 C723.48289,640.08636 719.5839,602.39599 719.5839,602.39599 C719.5839,602.39599 715.6849,612.79333 709.18656,608.89433 Z" id="Path" fill="#2F2E41"></path>
                <path d="M765.07227,608.89433 C765.07227,608.89433 758.57393,602.39597 767.67161,602.39597 C773.512306,602.515109 779.265027,603.842658 784.56729,606.29499 L791.06562,629.68899 C791.06562,629.68899 817.70881,651.13351 787.81646,648.53417 C757.92411,645.93483 758.57393,647.88434 758.57393,647.88434 C758.57393,647.88434 749.47626,645.285 748.17659,642.68567 C746.87692,640.08634 754.67493,602.39597 754.67493,602.39597 C754.67493,602.39597 758.57393,612.79333 765.07227,608.89433 Z" id="Path" fill="#2F2E41"></path>
                <circle id="Oval" fill="#A0616A" cx="680.59387" cy="56.53553" r="33.79136"></circle>
                <path d="M668.89686,81.22919 C668.89686,81.22919 674.09553,107.22255 674.09553,111.12155 C674.09553,115.02055 696.18988,126.71755 696.18988,126.71755 L720.88357,95.52555 C720.88357,95.52555 705.28757,73.4312 705.28757,68.23255 L668.89686,81.22919 Z" id="Path" fill="#A0616A"></path>
                <path d="M688.39187,115.02058 C688.39187,115.02058 677.06428,112.00558 673.6304,107.01475 C673.6304,107.01475 637.70483,142.31361 637.70483,148.81194 L666.29752,199.49899 C666.29752,199.49899 666.29752,217.69433 668.89686,218.99399 C671.4962,220.29365 668.89686,218.99399 668.89686,224.19266 C668.89686,229.39133 661.09886,263.18266 663.69819,268.38137 C666.29752,273.58008 668.89686,269.68103 666.29752,277.47904 C663.69818,285.27705 657.19985,326.86642 657.19985,326.86642 C657.19985,326.86642 680.59385,319.06842 714.38523,332.06509 C748.17661,345.06176 788.46629,326.86642 788.46629,326.86642 C788.46629,326.86642 778.06895,303.47242 780.66829,295.67442 C783.26763,287.87642 774.16995,273.58007 774.16995,273.58007 L767.67162,154.01064 C767.67162,154.01064 776.76929,100.72426 770.27095,98.12492 L757.27426,92.92619 L715.65372,87.81086 C715.65372,87.81086 705.28755,113.72092 688.39187,115.02058 Z" id="Path" fill="#D0CDE1"></path>
                <path d="M650.70151,139.71427 L637.70483,148.81194 C637.70483,148.81194 631.20649,168.30694 637.70483,177.40463 C644.20317,186.50232 646.80251,199.49899 646.80251,199.49899 L672.79586,196.89965 L650.70151,139.71427 Z" id="Path" fill="#D0CDE1"></path>
                <path d="M654.79434,20.82386 L648.93281,18.47723 C648.93281,18.47723 661.18869,4.98423 678.24049,6.15756 L673.44457,0.87761 C673.44457,0.87761 685.16764,-3.81557 695.82494,8.5041 C701.42727,14.9803 707.90924,22.59271 711.95008,31.16801 L718.22738,31.16801 L715.60747,36.93676 L724.77715,42.7055 L715.36537,41.66928 C716.256855,46.6495895 715.951735,51.7704769 714.47517,56.60969 L714.72745,61.16931 C714.72745,61.16931 703.81787,44.28993 703.81787,41.94331 L703.81787,47.80985 C703.81787,47.80985 697.95634,42.52999 697.95634,39.01008 L694.75916,43.11667 L693.16058,36.66345 L673.44458,43.11667 L676.64175,37.83681 L664.38587,39.59681 L669.18179,33.14359 C669.18179,33.14359 655.32732,40.77009 654.79435,47.22331 C654.26154,53.67644 647.33435,61.88961 647.33435,61.88961 L644.13718,56.02307 C644.13718,56.02307 639.34129,29.62363 654.79434,20.82386 Z" id="Path" fill="#2F2E41"></path>
                <rect id="Rectangle" fill="#F2F2F2" x="146.16914" y="282.832" width="516.46279" height="362.79825"></rect>
                <rect id="Rectangle" fill="#3F3D56" x="189.64496" y="421.25614" width="129.67789" height="226.37411"></rect>
                <rect id="Rectangle" fill="#F2F2F2" x="213.63162" y="434.83658" width="34.93166" height="32.56341"></rect>
                <rect id="Rectangle" fill="#F2F2F2" x="260.40453" y="434.83658" width="34.93166" height="32.56341"></rect>
                <rect id="Rectangle" fill="#F2F2F2" x="213.63162" y="479.24124" width="34.93166" height="33.74754"></rect>
                <rect id="Rectangle" fill="#F2F2F2" x="260.40453" y="479.24124" width="34.93166" height="33.74754"></rect>
                <circle id="Oval" fill="#6C63FF" cx="302.83202" cy="549.6836" r="8.24541"></circle>
                <rect id="Rectangle" fill="#3F3D56" x="362.79867" y="399.76697" width="256.35744" height="215.13036"></rect>
                <polygon id="Path" fill="#3F3D56" points="716.602 351.134 92.199 351.134 133.831 264.092 143.148 244.603 155.337 219.117 164.654 199.628 175.455 177.051 667.407 177.051 673.786 199.628 679.295 219.117 686.499 244.603 692.008 264.092"></polygon>
                <rect id="Rectangle" fill="#F2F2F2" x="362.79867" y="544.43652" width="256.35744" height="5.24708"></rect>
                <rect id="Rectangle" fill="#F2F2F2" x="488.72864" y="399.76697" width="4.4975" height="47.97332"></rect>
                <circle id="Oval" fill="#F2F2F2" cx="490.97739" cy="447.7403" r="7.49583"></circle>
                <polygon id="Path" fill="#6C63FF" points="679.295 219.117 155.337 219.117 164.654 199.628 673.786 199.628"></polygon>
                <polygon id="Path" fill="#6C63FF" points="692.008 264.092 133.831 264.092 143.148 244.603 686.499 244.603"></polygon>
                <path d="M746.87692,151.41128 C746.87692,151.41128 739.35073,170.76428 740.92285,189.91222 C741.210384,193.340511 742.364785,196.639423 744.27758,199.49898 L744.27758,199.49898 L652.07338,243.27319 C652.07338,243.27319 610.41181,247.58665 620.80915,265.782 C631.20649,283.97735 668.89686,256.68433 668.89686,256.68433 C668.89686,256.68433 767.67161,242.38798 775.46961,228.09164 C783.26761,213.7953 788.46629,154.01058 788.46629,154.01058 L746.87692,151.41128 Z" id="Path" fill="#A0616A"></path>
                <path d="M750.77592,98.1249 L770.27092,98.1249 C770.27092,98.1249 784.56727,100.72424 788.46627,126.71759 C792.36527,152.71094 796.26427,159.20929 792.36527,159.20929 C788.46627,159.20929 741.67827,157.90962 741.67827,156.60995 C741.67827,155.31028 750.77592,98.1249 750.77592,98.1249 Z" id="Path" fill="#D0CDE1"></path>
                <circle id="Oval" fill="#6C63FF" cx="100" cy="386.37637" r="100"></circle>
                <circle id="Oval" fill="#000000" opacity="0.1" cx="100" cy="386.37637" r="86"></circle>
                <path d="M95.87909,437.12428 L95.87909,424.60719 C89.55175,424.48375 83.00603,422.25219 79.188,419.15405 L81.806,410.85088 C86.3432813,414.251115 91.845791,416.117519 97.51542,416.17938 C105.2612,416.17938 110.49767,411.09838 110.49767,404.03445 C110.49767,397.21802 106.24287,393.00472 98.17004,389.28639 C87.04247,384.32939 80.1697,378.62818 80.1697,367.84654 C80.1697,357.55986 86.60623,349.75228 96.64294,347.89342 L96.64294,335.37637 L103.40652,335.37637 L103.40652,347.39786 C108.450035,347.466717 113.369521,348.971231 117.5888,351.73519 L114.8611,359.91491 C110.814508,357.144887 106.01936,355.674859 101.11556,355.701 C92.71569,355.701 89.55175,361.40163 89.55175,366.35921 C89.55175,372.8035 93.58817,376.02565 103.07944,380.48765 C114.31567,385.69271 119.98892,392.137 119.98892,403.16674 C119.98892,412.95723 113.98862,422.12874 102.75186,424.23445 L102.75186,437.12428 L95.87909,437.12428 Z" id="Path" fill="#F2F2F2"></path>
            </g>
            <g id="Group-2" transform="translate(690.000000, 710.000000)" fill="#74D5DE">
                <rect id="Rectangle" x="11" y="0" width="11" height="14" rx="3"></rect>
                <rect id="Rectangle" x="0" y="10" width="33" height="69" rx="10"></rect>
            </g>
            <g id="Group" transform="translate(743.000000, 732.000000)" fill="#FED385">
                <rect id="Rectangle" x="7" y="0" width="21" height="14" rx="3"></rect>
                <rect id="Rectangle" x="0" y="11" width="34" height="46" rx="5"></rect>
            </g>
            <g id="Group-3" transform="translate(797.000000, 743.000000)" fill="#DE8E68">
                <rect id="Rectangle" x="0" y="11" width="24" height="35" rx="4"></rect>
                <rect id="Rectangle" x="10" y="4" width="4" height="7"></rect>
                <ellipse id="Oval" cx="12" cy="3" rx="2" ry="3"></ellipse>
                <rect id="Rectangle" x="4" y="6" width="16" height="6" rx="2"></rect>
            </g>
        </g>
    </g>
</svg>
