<?xml version="1.0" encoding="UTF-8"?>
<svg width="161px" height="282px" viewBox="0 0 161 282" version="1.1" xmlns="http://www.w3.org/2000/svg" xmlns:xlink="http://www.w3.org/1999/xlink">
    <!-- Generator: Sketch 64 (93537) - https://sketch.com -->
    <title>Group</title>
    <desc>Created with Sketch.</desc>
    <g id="Page-1" stroke="none" stroke-width="1" fill="none" fill-rule="evenodd">
        <g id="Artboard" transform="translate(-1241.000000, -19.000000)" fill-rule="nonzero">
            <g id="Group" transform="translate(1241.000000, 18.952493)">
                <path d="M54.4673559,172.552055 C54.4673559,172.552055 57.4463559,215.251515 50.4953559,222.202595 C43.5443559,229.153675 112.061986,235.111735 111.068986,227.167645 C110.075986,219.223555 97.1668359,167.587005 101.138886,156.663885 C105.110936,145.740765 54.4673559,172.552055 54.4673559,172.552055 Z" id="Path" fill="#FFB8B8"></path>
                <path d="M55.6758233,172.301617 C55.6758233,172.301617 58.6548233,215.001077 51.7038233,221.952157 C44.7528233,228.903237 113.270453,234.861297 112.277453,226.917207 C111.284453,218.973117 98.3753033,167.336567 102.347353,156.413447 C106.319403,145.490327 55.6758233,172.301617 55.6758233,172.301617 Z" id="Path" fill="#000000" opacity="0.1"></path>
                <path d="M126.919913,101.942567 C116.856823,131.736857 101.426403,158.883927 69.9785633,158.883927 C38.5307233,158.883927 14.8091233,133.340447 13.0372033,101.942567 C10.7730533,61.8223368 37.8052733,44.8350268 69.9785633,45.0012068 C107.986073,45.1975068 138.862393,66.5839868 126.919913,101.942567 Z" id="Path" fill="#2F2E41"></path>
                <circle id="Oval" fill="#FFB8B8" cx="71.5919533" cy="142.511297" r="44.68548"></circle>
                <path d="M53.4450433,86.2109568 C53.4450433,86.2109568 52.9757133,83.5982868 34.6200433,90.4816768 C16.2643733,97.3650668 5.26130328,148.161507 14.4391633,177.989507 C18.1378033,190.010087 15.1290233,198.676957 10.2182733,204.740967 C-8.20987672,227.496857 -0.955476719,261.675587 25.8865333,273.377457 C26.6441866,273.707757 27.4173233,274.03427 28.2059433,274.356997 L39.6782633,281.240387 C39.6782633,281.240387 25.0535233,261.997307 32.3722633,237.381857 C38.7280915,216.408538 39.5129935,194.141646 34.6497133,172.772857 C33.8100533,169.168097 32.8562633,165.452277 31.7728233,161.660247 C22.5949633,129.537757 27.0586833,133.247417 59.1811733,101.124927 C59.1811733,101.124927 77.5368933,114.891707 93.5981733,121.775097 C109.659453,128.658487 123.426173,135.541887 111.953893,158.486527 C100.481613,181.431167 72.9480033,202.081337 91.3037133,231.909367 C109.659423,261.737397 111.953893,250.265077 109.659423,261.737367 L109.659423,261.737367 L107.364963,273.209687 L121.131743,259.442907 L111.953893,277.798617 C111.953893,277.798617 141.781893,277.798617 150.959773,254.853977 L155.548703,259.442907 C155.548703,259.442907 173.904453,227.320507 139.487453,197.492507 C139.487453,197.492507 128.015133,190.609117 144.076383,167.664507 C160.137633,144.719897 147.802383,95.3888968 127.152223,86.2110368 C106.502063,77.0331768 53.4450433,86.2109568 53.4450433,86.2109568 Z" id="Path" fill="#2F2E41"></path>
                <circle id="Oval" fill="#2F2E41" cx="69.9785633" cy="34.5120168" r="22.47685"></circle>
                <path d="M43.0063333,22.5243568 C43.0072002,10.9816386 51.7506401,1.31574072 63.2354533,0.161006763 C62.4960133,0.0875667633 61.7466033,0.0475067633 60.9877633,0.0475067633 C48.5741418,0.0475067633 38.5109133,10.1107353 38.5109133,22.5243568 C38.5109133,34.9379782 48.5741418,45.0012068 60.9877633,45.0012068 C61.7466033,45.0012068 62.4960133,44.9611468 63.2354533,44.8877068 C51.7506536,43.7329462 43.007228,34.0670642 43.0063333,22.5243568 Z" id="Path" fill="#2F2E41"></path>
            </g>
        </g>
    </g>
</svg>
