<svg id="Layer_5" enable-background="new 0 0 64 64" height="512" viewBox="0 0 64 64" width="512" xmlns="http://www.w3.org/2000/svg"><g><g><g><path d="m12 39c-3.859 0-7-3.141-7-7s3.141-7 7-7 7 3.141 7 7-3.141 7-7 7zm0-9c-1.103 0-2 .897-2 2s.897 2 2 2 2-.897 2-2-.897-2-2-2z" fill="#F7D590"/></g></g><g><path d="m39 30h14v9h-14z" fill="#F7D590"/></g><g><g><path d="m50 27c-7.168 0-13-5.832-13-13s5.832-13 13-13 13 5.832 13 13-5.832 13-13 13z" fill="#F7D590"/></g></g><g><path d="m5 17h2v2h-2z"/><path d="m9 17h2v2h-2z"/><path d="m13 17h2v2h-2z"/><path d="m55 25.997v34.003c0 .552-.448 1-1 1h-50c-.552 0-1-.448-1-1v-37h36.586l-17.586 17.586-4.402-4.402c-.402.536-.878 1.012-1.414 1.414l5.816 5.816 19.553-19.553c-.963-.826-1.801-1.79-2.49-2.861h-36.063v-5c0-.552.448-1 1-1h33.051c-.026-.331-.051-.662-.051-1s.025-.669.051-1h-33.051c-1.654 0-3 1.346-3 3v44c0 1.654 1.346 3 3 3h50c1.654 0 3-1.346 3-3v-35.063c-.633.406-1.299.767-2 1.06z"/><path d="m15 32c0-1.654-1.346-3-3-3s-3 1.346-3 3 1.346 3 3 3 3-1.346 3-3zm-4 0c0-.552.448-1 1-1s1 .448 1 1-.448 1-1 1-1-.448-1-1z"/><path d="m5 59h6v-18h-6zm2-16h2v14h-2z"/><path d="m19 45h-6v14h6zm-2 12h-2v-10h2z"/><path d="m21 59h6v-10h-6zm2-8h2v6h-2z"/><path d="m31 59h22v-18h-22zm2-16h18v14h-18z"/><path d="m39 29h14v2h-14z"/><path d="m50 19c-1.103 0-2-.897-2-2h-2c0 1.859 1.279 3.411 3 3.858v2.142h2v-2h3v-4c0-2.206-1.794-4-4-4-1.103 0-2-.897-2-2v-2h2c1.103 0 2 .897 2 2h2c0-1.859-1.279-3.411-3-3.858v-2.142h-2v2h-3v4c0 2.206 1.794 4 4 4 1.103 0 2 .897 2 2v2z"/><path d="m39 33h14v2h-14z"/><path d="m39 37h10v2h-10z"/><path d="m51 37h2v2h-2z"/></g></g></svg>
